<?xml version="1.0" encoding="iso-8859-1"?>
<!-- Generator: Adobe Illustrator 19.0.0, SVG Export Plug-In . SVG Version: 6.00 Build 0)  -->
<svg version="1.1" id="Capa_1" xmlns="http://www.w3.org/2000/svg" xmlns:xlink="http://www.w3.org/1999/xlink" x="0px" y="0px"
	 viewBox="0 0 480 480" style="enable-background:new 0 0 480 480;" xml:space="preserve">
<g>
	<g>
		<path d="M72,256v128h192V256H72z M248,368H88v-96h160V368z"/>
	</g>
</g>
<g>
	<g>
		<path d="M440,432V206.864c14.086-3.637,23.945-16.317,24-30.864v-41.888L412.944,32H319.2C315.375,13.387,299.002,0.021,280,0h-80
			c-19.002,0.021-35.375,13.387-39.2,32H67.056L16,134.112V176c0.055,14.547,9.915,27.227,24,30.864V432H0v48h480v-48H440z M448,176
			c0,8.837-7.163,16-16,16s-16-7.163-16-16v-16h32V176z M403.056,48L448,137.888V144h-33.968l-27.424-96H403.056z M369.968,48
			l27.432,96h-30.464l-13.712-96H369.968z M400,160v16c0,8.837-7.163,16-16,16s-16-7.163-16-16v-16H400z M320,48h17.064l13.712,96
			H320V48z M320,160h32v16c0,8.837-7.163,16-16,16s-16-7.163-16-16V160z M200,16h80c13.255,0,24,10.745,24,24s-10.745,24-24,24h-80
			c-13.255,0-24-10.745-24-24S186.745,16,200,16z M272,144V80h8c8.683-0.031,17.116-2.915,24-8.208V144H272z M304,160v16
			c0,8.837-7.163,16-16,16s-16-7.163-16-16v-16H304z M224,144V80h32v64H224z M256,160v16c0,8.837-7.163,16-16,16s-16-7.163-16-16
			v-16H256z M176,71.792c6.884,5.293,15.317,8.177,24,8.208h8v64h-32V71.792z M176,160h32v16c0,8.837-7.163,16-16,16
			s-16-7.163-16-16V160z M164.507,200.437c1.254-1.071,2.422-2.239,3.493-3.493c11.326,13.255,31.252,14.819,44.507,3.493
			c1.254-1.071,2.422-2.239,3.493-3.493c11.326,13.255,31.252,14.819,44.507,3.493c1.254-1.071,2.422-2.239,3.493-3.493
			c11.326,13.255,31.252,14.819,44.507,3.493c1.254-1.071,2.422-2.239,3.493-3.493c11.326,13.255,31.252,14.819,44.507,3.493
			c1.254-1.071,2.422-2.239,3.493-3.493c11.326,13.255,31.252,14.819,44.507,3.493c1.254-1.071,2.422-2.239,3.493-3.493
			c4.212,4.843,9.789,8.301,16,9.92V432h-16V320c0-35.346-28.654-64-64-64c-35.346,0-64,28.654-64,64v112H56V206.864
			c6.211-1.619,11.788-5.077,16-9.92c11.326,13.255,31.252,14.819,44.507,3.493c1.254-1.071,2.422-2.239,3.493-3.493
			C131.326,210.199,151.252,211.763,164.507,200.437z M392,320v112h-96V320c0-26.51,21.49-48,48-48C370.51,272,392,293.49,392,320z
			 M80,176v-16h32v16c0,8.837-7.163,16-16,16S80,184.837,80,176z M142.936,48H160v96h-30.776L142.936,48z M128,160h32v16
			c0,8.837-7.163,16-16,16s-16-7.163-16-16V160z M126.776,48l-13.712,96H82.608l27.424-96H126.776z M32,137.888L76.944,48h16.448
			l-27.424,96H32V137.888z M32,176v-16h32v16c0,8.837-7.163,16-16,16S32,184.837,32,176z M464,464H16v-16h448V464z"/>
	</g>
</g>
<g>
</g>
<g>
</g>
<g>
</g>
<g>
</g>
<g>
</g>
<g>
</g>
<g>
</g>
<g>
</g>
<g>
</g>
<g>
</g>
<g>
</g>
<g>
</g>
<g>
</g>
<g>
</g>
<g>
</g>
</svg>
