<?xml version="1.0" encoding="iso-8859-1"?>
<!-- Generator: Adobe Illustrator 19.0.0, SVG Export Plug-In . SVG Version: 6.00 Build 0)  -->
<svg version="1.1" id="Capa_1" xmlns="http://www.w3.org/2000/svg" xmlns:xlink="http://www.w3.org/1999/xlink" x="0px" y="0px"
	 viewBox="0 0 481.936 481.936" style="enable-background:new 0 0 481.936 481.936;" xml:space="preserve">
<g>
	<g>
		<path d="M140,320.968h282.4l59.536-272H80.88l-10.4-48H0v16h57.552l20.848,96H16v16h65.904l10.4,48H64v16h31.816l10.4,48H32v16
			h77.728l27.824,128H424v-16H150.448L140,320.968z M264,304.968h-32.248l-1.496-48H264V304.968z M264,240.968h-34.248l-1.496-48
			H264V240.968z M264,176.968h-36.248l-1.496-48H264V176.968z M409.6,304.968h-32.536l6-48h37L409.6,304.968z M407.064,64.968h55
			l-10.496,48h-50.504L407.064,64.968z M399.056,128.968h49l-10.456,48h-44.544L399.056,128.968z M434.056,192.968l-10.496,48
			h-38.496l5.992-48H434.056z M335.752,64.968h55.2l-6,48h-50.704L335.752,64.968z M333.752,128.968h49.192l-6.008,48h-44.688
			L333.752,128.968z M331.76,192.968h43.2l-6,48h-38.704L331.76,192.968z M329.752,256.968h37.192l-6,48h-32.696L329.752,256.968z
			 M280,64.968h39.752l-1.504,48H280V64.968z M280,128.968h37.752l-1.496,48H280V128.968z M280,192.968h35.752l-1.496,48H280
			V192.968z M280,256.968h33.752l-1.496,48H280V256.968z M264,64.968v48h-38.248l-1.496-48H264z M215.76,304.968h-32.696l-6-48
			h37.192L215.76,304.968z M213.76,240.968h-38.696l-6-48h43.192L213.76,240.968z M211.76,176.968h-44.696l-6-48h49.192
			L211.76,176.968z M208.264,64.968l1.488,48h-50.688l-6-48H208.264z M94.792,112.968l-10.424-48h52.584l6,48H94.792z
			 M108.704,176.968l-10.424-48h46.664l6,48H108.704z M112.192,192.968h40.752l6,48h-36.32L112.192,192.968z M136.544,304.968
			l-10.4-48h34.8l6,48H136.544z"/>
	</g>
</g>
<g>
	<g>
		<path d="M192,400.968c-22.091,0-40,17.909-40,40c0,22.091,17.909,40,40,40s40-17.909,40-40
			C231.974,418.888,214.08,400.994,192,400.968z M192,464.968c-13.255,0-24-10.745-24-24s10.745-24,24-24s24,10.745,24,24
			S205.255,464.968,192,464.968z"/>
	</g>
</g>
<g>
	<g>
		<rect y="176.968" width="32" height="16"/>
	</g>
</g>
<g>
	<g>
		<path d="M368,400.968c-22.091,0-40,17.909-40,40c0,22.091,17.909,40,40,40c22.091,0,40-17.909,40-40
			C407.974,418.888,390.08,400.994,368,400.968z M368,464.968c-13.255,0-24-10.745-24-24s10.745-24,24-24s24,10.745,24,24
			S381.255,464.968,368,464.968z"/>
	</g>
</g>
<g>
</g>
<g>
</g>
<g>
</g>
<g>
</g>
<g>
</g>
<g>
</g>
<g>
</g>
<g>
</g>
<g>
</g>
<g>
</g>
<g>
</g>
<g>
</g>
<g>
</g>
<g>
</g>
<g>
</g>
</svg>
