<?xml version="1.0" encoding="iso-8859-1"?>
<!-- Generator: Adobe Illustrator 19.0.0, SVG Export Plug-In . SVG Version: 6.00 Build 0)  -->
<svg version="1.1" id="Capa_1" xmlns="http://www.w3.org/2000/svg" xmlns:xlink="http://www.w3.org/1999/xlink" x="0px" y="0px"
	 viewBox="0 0 479.988 479.988" style="enable-background:new 0 0 479.988 479.988;" xml:space="preserve">
<g>
	<g>
		<path d="M411.058,112.596c-0.975-0.381-2.017-0.563-3.064-0.536v-0.072h-40v-24C368.027,39.427,328.687,0.033,280.126,0
			c-33.628-0.023-64.324,19.136-79.076,49.356c-33.305,5.796-60.362,30.127-69.648,62.632h-11.408c-2.122,0-4.156,0.844-5.656,2.344
			l-48,48c-1.5,1.5-2.344,3.534-2.344,5.656v304c0,4.418,3.582,8,8,8H383.33v-0.064c0.224,0,0.44,0.064,0.664,0.064
			c17.673,0,32-14.327,32-32v-328C415.995,116.753,414.047,113.835,411.058,112.596z M279.994,15.988
			c39.746,0.044,71.956,32.254,72,72v24h-51.408C290.214,75.64,257.8,49.967,220.042,48.196
			C233.371,28.097,255.877,16.006,279.994,15.988z M303.994,239.988v-13.776c7.653,4.418,10.275,14.204,5.856,21.856
			c-4.418,7.653-14.204,10.275-21.856,5.856c-7.653-4.418-10.275-14.204-5.856-21.856c1.404-2.432,3.424-4.452,5.856-5.856v13.776
			H303.994z M207.994,87.988c0.017-8.11,1.413-16.158,4.128-23.8c1.288-0.072,2.568-0.2,3.872-0.2
			c30.477,0.052,57.625,19.272,67.8,48h-75.8V87.988z M194.562,67.244c-1.681,6.787-2.543,13.752-2.568,20.744v24h-43.8
			C155.778,90.627,172.945,74.062,194.562,67.244z M143.994,135.988c0.009-2.673,0.167-5.344,0.472-8h143.056
			c0.305,2.656,0.463,5.327,0.472,8v24h-144V135.988z M143.994,239.988v-13.776c7.653,4.418,10.275,14.204,5.856,21.856
			c-4.418,7.653-14.204,10.275-21.856,5.856c-7.653-4.418-10.275-14.204-5.856-21.856c1.404-2.432,3.424-4.452,5.856-5.856v13.776
			H143.994z M123.306,127.988h5.096c-0.24,2.64-0.408,5.296-0.408,8v24H91.306L123.306,127.988z M79.994,463.988v-288h48v33.136
			c-17.112,4.418-27.402,21.872-22.984,38.984c4.418,17.112,21.872,27.402,38.984,22.984s27.402-21.872,22.984-38.984
			c-2.91-11.272-11.712-20.074-22.984-22.984v-33.136h144v33.136c-17.112,4.418-27.402,21.872-22.984,38.984
			c4.418,17.112,21.872,27.402,38.984,22.984c17.112-4.418,27.402-21.872,22.984-38.984c-2.91-11.272-11.712-20.074-22.984-22.984
			v-33.136h48v272c0.031,5.634,1.567,11.158,4.448,16H79.994z M303.994,159.988v-24c0-2.704-0.168-5.36-0.408-8h85.096l-32,32
			H303.994z M399.994,447.988c0,8.837-7.163,16-16,16s-16-7.163-16-16V171.3l32-32V447.988z"/>
	</g>
</g>
<g>
</g>
<g>
</g>
<g>
</g>
<g>
</g>
<g>
</g>
<g>
</g>
<g>
</g>
<g>
</g>
<g>
</g>
<g>
</g>
<g>
</g>
<g>
</g>
<g>
</g>
<g>
</g>
<g>
</g>
</svg>
