<?xml version="1.0" encoding="iso-8859-1"?>
<!-- Generator: Adobe Illustrator 19.0.0, SVG Export Plug-In . SVG Version: 6.00 Build 0)  -->
<svg version="1.1" id="Capa_1" xmlns="http://www.w3.org/2000/svg" xmlns:xlink="http://www.w3.org/1999/xlink" x="0px" y="0px"
	 viewBox="0 0 480.001 480.001" style="enable-background:new 0 0 480.001 480.001;" xml:space="preserve">
<g>
	<g>
		<path d="M455.032,371.728l-2.744-2.76C436.333,352.929,414.624,343.939,392,344h-15.2c-55.38-0.009-108.932-19.821-150.984-55.856
			L178.96,248H0v232h120v-41.536c19.486,3.911,38.575,9.588,57.032,16.96c40.57,16.268,83.882,24.611,127.592,24.576H480v-48
			C480.062,409.381,471.071,387.677,455.032,371.728z M16,264h157.04l42.344,36.288c4.52,3.88,9.2,7.528,13.96,11.048
			l-27.008,27.008l11.312,11.312l29.048-29.048c15.402,9.894,31.851,18.053,49.048,24.328l-25.408,25.408l11.312,11.312l31.2-31.2
			c14.111,4.023,28.552,6.786,43.152,8.256V432h-47.376c-41.677,0.033-82.973-7.921-121.656-23.432
			C142.398,392.303,99.086,383.963,55.376,384H16V264z M104,464H16v-32h39.376c16.276,0.008,32.529,1.227,48.624,3.648V464z
			 M464,464H304.624c-41.677,0.033-82.973-7.921-121.656-23.432C142.398,424.303,99.086,415.963,55.376,416H16v-16h39.376
			c41.677-0.033,82.973,7.921,121.656,23.432c40.571,16.265,83.882,24.605,127.592,24.568H464V464z M368,432v-72.2
			c2.92,0.104,5.848,0.2,8.8,0.2H392c18.375-0.053,36.007,7.247,48.968,20.272l2.752,2.76C456.749,395.992,464.051,413.624,464,432
			H368z"/>
	</g>
</g>
<g>
	<g>
		<path d="M301.04,0L254.2,40.152C212.141,76.186,158.584,95.994,103.2,96H88c-22.628-0.061-44.339,8.933-60.296,24.976
			l-2.736,2.744C8.928,139.672-0.063,161.379,0,184v48h175.376c43.71,0.037,87.021-8.303,127.592-24.568
			c18.456-7.375,37.546-13.055,57.032-16.968V232h120V0H301.04z M36.296,135.024l2.736-2.744C51.992,119.252,69.624,111.949,88,112
			h15.2c2.936,0,5.856-0.096,8.8-0.2V184H16C15.952,165.619,23.26,147.983,36.296,135.024z M464,216h-88v-28.352
			c16.095-2.421,32.348-3.64,48.624-3.648H464V216z M464,168h-39.376c-43.71-0.037-87.021,8.303-127.592,24.568h0
			C258.35,208.079,217.053,216.033,175.376,216H16v-16h159.376c43.71,0.037,87.021-8.303,127.592-24.568
			c38.683-15.511,79.979-23.465,121.656-23.432H464V168z M464,136h-39.376c-43.71-0.037-87.021,8.303-127.592,24.568
			C258.35,176.079,217.053,184.033,175.376,184H128v-73.288c14.597-1.47,29.035-4.233,43.144-8.256l31.2,31.2l11.312-11.312
			l-25.408-25.408c17.197-6.275,33.646-14.434,49.048-24.328l29.048,29.048l11.312-11.312l-27-27c4.8-3.52,9.44-7.2,13.96-11.048
			L306.96,16H464V136z"/>
	</g>
</g>
<g>
</g>
<g>
</g>
<g>
</g>
<g>
</g>
<g>
</g>
<g>
</g>
<g>
</g>
<g>
</g>
<g>
</g>
<g>
</g>
<g>
</g>
<g>
</g>
<g>
</g>
<g>
</g>
<g>
</g>
</svg>
