<?xml version="1.0" encoding="iso-8859-1"?>
<!-- Generator: Adobe Illustrator 19.0.0, SVG Export Plug-In . SVG Version: 6.00 Build 0)  -->
<svg version="1.1" id="Capa_1" xmlns="http://www.w3.org/2000/svg" xmlns:xlink="http://www.w3.org/1999/xlink" x="0px" y="0px"
	 viewBox="0 0 480.006 480.006" style="enable-background:new 0 0 480.006 480.006;" xml:space="preserve">
<g>
	<g>
		<path d="M472.006,0.003h-360c-1.892-0.001-3.723,0.667-5.168,1.888l-104,88c-3.376,2.851-3.801,7.898-0.95,11.274
			c0.144,0.171,0.296,0.336,0.454,0.494l104,104c1.502,1.502,3.54,2.346,5.664,2.344h144v224h-112v48h288v-48h-96v-224h136
			c4.418,0,8-3.582,8-8v-192C480.006,3.585,476.425,0.003,472.006,0.003z M416.006,448.003v16h-256v-16H416.006z M272.006,432.003
			v-224h48v224H272.006z M464.006,192.003H115.318L19.814,96.499l95.12-80.496h349.072V192.003z"/>
	</g>
</g>
<g>
	<g>
		<path d="M88.006,72.003c-13.255,0-24,10.745-24,24s10.745,24,24,24s24-10.745,24-24S101.261,72.003,88.006,72.003z
			 M88.006,104.003c-4.418,0-8-3.582-8-8s3.582-8,8-8s8,3.582,8,8S92.425,104.003,88.006,104.003z"/>
	</g>
</g>
<g>
	<g>
		<path d="M304.006,96.003h-16c-8.837,0-16-7.163-16-16s7.163-16,16-16h16c8.837,0,16,7.163,16,16h16c0-17.673-14.327-32-32-32v-16
			h-16v16c-17.673,0-32,14.327-32,32s14.327,32,32,32h16c8.837,0,16,7.163,16,16s-7.163,16-16,16h-16c-8.837,0-16-7.163-16-16h-16
			c0,17.673,14.327,32,32,32v16h16v-16c17.673,0,32-14.327,32-32S321.68,96.003,304.006,96.003z"/>
	</g>
</g>
<g>
	<g>
		<path d="M208.006,96.003h-16c-8.837,0-16-7.163-16-16s7.163-16,16-16h16c8.837,0,16,7.163,16,16h16c0-17.673-14.327-32-32-32v-16
			h-16v16c-17.673,0-32,14.327-32,32s14.327,32,32,32h16c8.837,0,16,7.163,16,16s-7.163,16-16,16h-16c-8.837,0-16-7.163-16-16h-16
			c0,17.673,14.327,32,32,32v16h16v-16c17.673,0,32-14.327,32-32S225.68,96.003,208.006,96.003z"/>
	</g>
</g>
<g>
	<g>
		<path d="M400.006,96.003h-16c-8.837,0-16-7.163-16-16s7.163-16,16-16h16c8.837,0,16,7.163,16,16h16c0-17.673-14.327-32-32-32v-16
			h-16v16c-17.673,0-32,14.327-32,32s14.327,32,32,32h16c8.837,0,16,7.163,16,16s-7.163,16-16,16h-16c-8.837,0-16-7.163-16-16h-16
			c0,17.673,14.327,32,32,32v16h16v-16c17.673,0,32-14.327,32-32S417.68,96.003,400.006,96.003z"/>
	</g>
</g>
<g>
</g>
<g>
</g>
<g>
</g>
<g>
</g>
<g>
</g>
<g>
</g>
<g>
</g>
<g>
</g>
<g>
</g>
<g>
</g>
<g>
</g>
<g>
</g>
<g>
</g>
<g>
</g>
<g>
</g>
</svg>
