<?xml version="1.0" encoding="iso-8859-1"?>
<!-- Generator: Adobe Illustrator 19.0.0, SVG Export Plug-In . SVG Version: 6.00 Build 0)  -->
<svg version="1.1" id="Capa_1" xmlns="http://www.w3.org/2000/svg" xmlns:xlink="http://www.w3.org/1999/xlink" x="0px" y="0px"
	 viewBox="0 0 480 480" style="enable-background:new 0 0 480 480;" xml:space="preserve">
<g>
	<g>
		<path d="M176,0c-35.33,0.04-63.96,28.67-64,64v288H8c-4.418,0-8,3.582-8,8v56c0.04,35.33,28.67,63.96,64,64h312v-0.496
			c31.979-4.075,55.957-31.266,56-63.504V64c0.031-26.497,21.503-47.969,48-48V0H176z M64,464c-26.497-0.031-47.969-21.503-48-48
			v-48h288v48c-0.007,18.379,7.905,35.87,21.712,48H64z M416,64v352c0,26.51-21.49,48-48,48c-26.51,0-48-21.49-48-48v-56
			c0-4.418-3.582-8-8-8H128V64c0.031-26.497,21.503-47.969,48-48h261.808C423.959,28.108,416.01,45.604,416,64z"/>
	</g>
</g>
<g>
	<g>
		<rect x="192" y="32" width="160" height="16"/>
	</g>
</g>
<g>
	<g>
		<rect x="144" y="64" width="256" height="16"/>
	</g>
</g>
<g>
	<g>
		<rect x="160" y="112" width="80" height="16"/>
	</g>
</g>
<g>
	<g>
		<rect x="160" y="144" width="64" height="16"/>
	</g>
</g>
<g>
	<g>
		<rect x="160" y="176" width="96" height="16"/>
	</g>
</g>
<g>
	<g>
		<rect x="160" y="208" width="48" height="16"/>
	</g>
</g>
<g>
	<g>
		<rect x="160" y="240" width="80" height="16"/>
	</g>
</g>
<g>
	<g>
		<rect x="352" y="112" width="32" height="16"/>
	</g>
</g>
<g>
	<g>
		<rect x="352" y="144" width="32" height="16"/>
	</g>
</g>
<g>
	<g>
		<rect x="352" y="176" width="32" height="16"/>
	</g>
</g>
<g>
	<g>
		<rect x="352" y="208" width="32" height="16"/>
	</g>
</g>
<g>
	<g>
		<rect x="352" y="240" width="32" height="16"/>
	</g>
</g>
<g>
	<g>
		<path d="M400,352v-8c0-13.255-10.745-24-24-24v-16h-16v16c-13.255,0-24,10.745-24,24v16c0,13.255,10.745,24,24,24h16
			c4.418,0,8,3.582,8,8v16c0,4.418-3.582,8-8,8h-16c-4.418,0-8-3.582-8-8v-8h-16v8c0,13.255,10.745,24,24,24v16h16v-16
			c13.255,0,24-10.745,24-24v-16c0-13.255-10.745-24-24-24h-16c-4.418,0-8-3.582-8-8v-16c0-4.418,3.582-8,8-8h16
			c4.418,0,8,3.582,8,8v8H400z"/>
	</g>
</g>
<g>
	<g>
		<rect x="160" y="320" width="128" height="16"/>
	</g>
</g>
<g>
	<g>
		<rect x="160" y="288" width="128" height="16"/>
	</g>
</g>
<g>
</g>
<g>
</g>
<g>
</g>
<g>
</g>
<g>
</g>
<g>
</g>
<g>
</g>
<g>
</g>
<g>
</g>
<g>
</g>
<g>
</g>
<g>
</g>
<g>
</g>
<g>
</g>
<g>
</g>
</svg>
