<?xml version="1.0" encoding="iso-8859-1"?>
<!-- Generator: Adobe Illustrator 19.0.0, SVG Export Plug-In . SVG Version: 6.00 Build 0)  -->
<svg version="1.1" id="Capa_1" xmlns="http://www.w3.org/2000/svg" xmlns:xlink="http://www.w3.org/1999/xlink" x="0px" y="0px"
	 viewBox="0 0 488 488" style="enable-background:new 0 0 488 488;" xml:space="preserve">
<g>
	<g>
		<path d="M432.5,234.376L240.492,42.344c-3.124-3.123-8.188-3.123-11.312,0l-40,40c-0.08,0.08-0.104,0.192-0.184,0.28
			c-0.616,0.655-1.117,1.409-1.48,2.232c0,0.064-0.072,0.12-0.104,0.184v0.048l-71.416,182.44L23.524,360l91.312,91.312l16-16
			l50.344,50.344c1.5,1.5,3.534,2.344,5.656,2.344h104c4.418,0.003,8.003-3.576,8.006-7.994c0.001-2.023-0.764-3.972-2.142-5.454
			L197.948,368.2l9.36-9.36l182.448-71.392h0.056l0.144-0.08c0.838-0.367,1.607-0.875,2.272-1.504
			c0.08-0.072,0.192-0.096,0.272-0.176l40-40C435.623,242.564,435.623,237.5,432.5,234.376z M125.18,418.344l-10.344,10.344
			L46.148,360l76.688-76.688L191.524,352l-10.344,10.344L125.18,418.344z M272.492,472h-82.344l-48-48l44.472-44.472L272.492,472z
			 M204.796,342.64l-72.6-72.6l65.6-167.736l174.736,174.704L204.796,342.64z M386.836,268.688L206.148,88l28.688-28.688
			L415.524,240L386.836,268.688z"/>
	</g>
</g>
<g>
	<g>
		<rect x="42.794" y="390.057" transform="matrix(0.7071 -0.7071 0.7071 0.7071 -284.9352 160.1036)" width="16" height="67.88"/>
	</g>
</g>
<g>
	<g>
		<rect x="18.819" y="436.708" transform="matrix(0.7071 -0.7071 0.7071 0.7071 -308.9431 150.1862)" width="16" height="22.624"/>
	</g>
</g>
<g>
	<g>
		<path d="M450.836,0h-96c-13.255,0-24,10.745-24,24v64c0,13.255,10.745,24,24,24h11.056l13.792,27.576
			c1.975,3.952,6.78,5.555,10.733,3.579c1.549-0.774,2.805-2.03,3.579-3.579L407.78,112h43.056c13.255,0,24-10.745,24-24V24
			C474.836,10.745,464.091,0,450.836,0z M458.836,88c0,4.418-3.582,8-8,8h-48c-3.032-0.001-5.805,1.712-7.16,4.424l-8.84,17.688
			l-8.84-17.688c-1.355-2.712-4.128-4.425-7.16-4.424h-16c-4.418,0-8-3.582-8-8V24c0-4.418,3.582-8,8-8h96c4.418,0,8,3.582,8,8V88z"
			/>
	</g>
</g>
<g>
	<g>
		<rect x="362.836" y="48" width="16" height="16"/>
	</g>
</g>
<g>
	<g>
		<rect x="394.836" y="48" width="16" height="16"/>
	</g>
</g>
<g>
	<g>
		<rect x="426.836" y="48" width="16" height="16"/>
	</g>
</g>
<g>
</g>
<g>
</g>
<g>
</g>
<g>
</g>
<g>
</g>
<g>
</g>
<g>
</g>
<g>
</g>
<g>
</g>
<g>
</g>
<g>
</g>
<g>
</g>
<g>
</g>
<g>
</g>
<g>
</g>
</svg>
