<?xml version="1.0" encoding="iso-8859-1"?>
<!-- Generator: Adobe Illustrator 19.0.0, SVG Export Plug-In . SVG Version: 6.00 Build 0)  -->
<svg version="1.1" id="Capa_1" xmlns="http://www.w3.org/2000/svg" xmlns:xlink="http://www.w3.org/1999/xlink" x="0px" y="0px"
	 viewBox="0 0 466.048 466.048" style="enable-background:new 0 0 466.048 466.048;" xml:space="preserve">
<g>
	<g>
		<path d="M441.711,0H272.335c-6.368-0.016-12.478,2.516-16.968,7.032l-248,248c-9.373,9.372-9.375,24.568-0.003,33.941
			c0.001,0.001,0.002,0.002,0.003,0.003l169.376,169.368c9.372,9.369,24.564,9.369,33.936,0l248-248
			c4.517-4.493,7.049-10.605,7.032-16.976V24C465.711,10.745,454.966,0,441.711,0z M449.711,193.368
			c0.002,2.124-0.842,4.162-2.344,5.664l-248,248c-3.124,3.123-8.188,3.123-11.312,0L18.679,277.656
			c-3.123-3.124-3.123-8.188,0-11.312l248-248c1.504-1.494,3.536-2.336,5.656-2.344h169.376c4.418,0,8,3.582,8,8V193.368z"/>
	</g>
</g>
<g>
	<g>
		<path d="M361.711,64c-22.091,0-40,17.909-40,40s17.909,40,40,40c22.091,0,40-17.909,40-40
			C401.685,81.92,383.792,64.027,361.711,64z M361.711,128c-13.255,0-24-10.745-24-24s10.745-24,24-24s24,10.745,24,24
			S374.966,128,361.711,128z"/>
	</g>
</g>
<g>
	<g>
		<path d="M402.687,284.168L314.511,445.84c-2.117,3.878-6.977,5.306-10.855,3.188c-0.046-0.025-0.091-0.051-0.137-0.076
			l-41.808-23.896l-8,13.888l41.832,23.904c3.607,2.085,7.698,3.189,11.864,3.2c2.227-0.001,4.442-0.311,6.584-0.92
			c6.212-1.74,11.451-5.926,14.52-11.6l88.224-161.696L402.687,284.168z"/>
	</g>
</g>
<g>
	<g>
		<rect x="169.714" y="148.685" transform="matrix(0.7071 -0.7071 0.7071 0.7071 -61.0835 172.5251)" width="16" height="22.624"/>
	</g>
</g>
<g>
	<g>
		<rect x="201.713" y="180.684" transform="matrix(0.7071 -0.7071 0.7071 0.7071 -74.3386 204.5245)" width="16" height="22.624"/>
	</g>
</g>
<g>
	<g>
		<rect x="233.712" y="212.684" transform="matrix(0.7071 -0.7071 0.7071 0.7071 -87.5937 236.5231)" width="16" height="22.624"/>
	</g>
</g>
<g>
	<g>
		<rect x="265.711" y="244.684" transform="matrix(0.7071 -0.7071 0.7071 0.7071 -100.8489 268.5224)" width="16" height="22.624"/>
	</g>
</g>
<g>
	<g>
		<rect x="297.71" y="276.684" transform="matrix(0.7071 -0.7071 0.7071 0.7071 -114.104 300.5217)" width="16" height="22.624"/>
	</g>
</g>
<g>
	<g>
		<path d="M231.367,341.656c11.944-11.967,11.944-31.345,0-43.312l-16-16c-11.967-11.944-31.345-11.944-43.312,0l-16,16
			c-5.79,5.524-14.898,5.524-20.688,0l-16-16c-5.707-5.715-5.707-14.973,0-20.688l16-16c5.79-5.524,14.898-5.524,20.688,0
			l11.312-11.312c-11.967-11.944-31.345-11.944-43.312,0l-2.344,2.344l-10.344-10.344l-11.312,11.312L110.399,248l-2.344,2.344
			c-11.944,11.967-11.944,31.345,0,43.312l16,16c11.967,11.944,31.345,11.944,43.312,0l16-16c5.79-5.524,14.898-5.524,20.688,0
			l16,16c5.707,5.715,5.707,14.973,0,20.688l-16,16c-5.79,5.524-14.898,5.524-20.688,0l-11.312,11.312
			c11.967,11.944,31.345,11.944,43.312,0l2.344-2.344l10.344,10.344l11.312-11.312L229.023,344L231.367,341.656z"/>
	</g>
</g>
<g>
	<g>
		<rect x="191.771" y="104.005" transform="matrix(0.7071 -0.7071 0.7071 0.7071 -13.0903 192.407)" width="67.88" height="16"/>
	</g>
</g>
<g>
	<g>
		<rect x="223.77" y="135.973" transform="matrix(0.7071 -0.7071 0.7071 0.7071 -26.3227 224.3971)" width="67.88" height="16"/>
	</g>
</g>
<g>
	<g>
		<rect x="255.769" y="167.973" transform="matrix(0.7071 -0.7071 0.7071 0.7071 -39.5778 256.3964)" width="67.88" height="16"/>
	</g>
</g>
<g>
	<g>
		<rect x="287.768" y="199.973" transform="matrix(0.7071 -0.7071 0.7071 0.7071 -52.833 288.3955)" width="67.88" height="16"/>
	</g>
</g>
<g>
	<g>
		<rect x="319.767" y="231.973" transform="matrix(0.7071 -0.7071 0.7071 0.7071 -66.0881 320.3948)" width="67.88" height="16"/>
	</g>
</g>
<g>
</g>
<g>
</g>
<g>
</g>
<g>
</g>
<g>
</g>
<g>
</g>
<g>
</g>
<g>
</g>
<g>
</g>
<g>
</g>
<g>
</g>
<g>
</g>
<g>
</g>
<g>
</g>
<g>
</g>
</svg>
