<?xml version="1.0" encoding="iso-8859-1"?>
<!-- Generator: Adobe Illustrator 19.0.0, SVG Export Plug-In . SVG Version: 6.00 Build 0)  -->
<svg version="1.1" id="Capa_1" xmlns="http://www.w3.org/2000/svg" xmlns:xlink="http://www.w3.org/1999/xlink" x="0px" y="0px"
	 viewBox="0 0 480 480" style="enable-background:new 0 0 480 480;" xml:space="preserve">
<g>
	<g>
		<path d="M443.34,263.997c-0.094,0-0.189,0.001-0.284,0.003c-9.12-0.018-17.909,3.411-24.608,9.6l-86.672,80
			c-4.427,4.112-10.246,6.398-16.288,6.4H193.944c-8.837,0-16-7.163-16-16s7.163-16,16-16h84.112c17.673,0,32-14.327,32-32
			c0-17.673-14.327-32-32-32H147.528c-19.494-0.006-38.595,5.475-55.12,15.816L64,297.6V288H0v192h64v-16h168.664
			c5.295,0,10.582-0.404,15.816-1.208l65.68-10.104c21.875-3.319,42.107-13.571,57.72-29.248l97.488-97.504
			c6.829-6.788,10.658-16.027,10.632-25.656C479.896,280.137,463.482,263.893,443.34,263.997z M48,464H16V304h32V464z
			 M458.048,314.64l0.008-0.016l-97.488,97.504c-13.212,13.264-30.331,21.94-48.84,24.752l-65.68,10.104
			c-4.429,0.677-8.903,1.017-13.384,1.016H64V316.432l36.896-23.056c13.981-8.745,30.141-13.381,46.632-13.376h130.528
			c8.837,0,16,7.163,16,16s-7.163,16-16,16h-84.112c-17.673,0-32,14.327-32,32c0,17.673,14.327,32,32,32h121.544
			c10.059,0.011,19.751-3.778,27.136-10.608l86.68-80c3.933-3.573,9.088-5.497,14.4-5.376c11.2-0.004,20.284,9.072,20.288,20.272
			C463.994,305.671,461.855,310.834,458.048,314.64z"/>
	</g>
</g>
<g>
	<g>
		<path d="M358.4,83.2c-1.511-2.014-3.882-3.2-6.4-3.2h-74.584L247.432,5.032c-1.641-4.102-6.296-6.098-10.399-4.457
			c-2.033,0.813-3.644,2.424-4.457,4.457L202.584,80H128c-4.418,0-8,3.582-8,8c0,2.518,1.186,4.889,3.2,6.4l59.256,44.44
			l-29.976,82.4c-1.51,4.152,0.632,8.742,4.784,10.252c2.621,0.953,5.549,0.472,7.728-1.268l74.728-59.792l66.96,59.512
			c3.304,2.934,8.36,2.634,11.294-0.67c1.793-2.019,2.446-4.805,1.738-7.41l-22.56-82.72L356.8,94.4
			C360.335,91.749,361.051,86.734,358.4,83.2z M283.2,129.6c-2.625,1.968-3.782,5.339-2.92,8.504l16.92,62.04l-51.88-46.12
			c-2.912-2.591-7.267-2.705-10.312-0.272l-57.744,46.192l22.264-61.208c1.203-3.314,0.095-7.024-2.728-9.136L152,96h56
			c3.274,0.001,6.218-1.992,7.432-5.032L240,29.536l24.568,61.432c1.214,3.04,4.159,5.033,7.432,5.032h56L283.2,129.6z"/>
	</g>
</g>
<g>
	<g>
		<rect x="160.005" y="17.376" transform="matrix(0.7071 -0.7071 0.7071 0.7071 20.9201 130.5147)" width="16" height="45.256"/>
	</g>
</g>
<g>
	<g>
		<rect x="289.374" y="31.994" transform="matrix(0.7071 -0.7071 0.7071 0.7071 63.1029 232.3326)" width="45.256" height="16"/>
	</g>
</g>
<g>
	<g>
		<rect x="104" y="144" width="48" height="16"/>
	</g>
</g>
<g>
	<g>
		<rect x="328" y="144" width="48" height="16"/>
	</g>
</g>
<g>
	<g>
		<rect x="232" y="192" width="16" height="48"/>
	</g>
</g>
<g>
</g>
<g>
</g>
<g>
</g>
<g>
</g>
<g>
</g>
<g>
</g>
<g>
</g>
<g>
</g>
<g>
</g>
<g>
</g>
<g>
</g>
<g>
</g>
<g>
</g>
<g>
</g>
<g>
</g>
</svg>
