<?xml version="1.0" encoding="iso-8859-1"?>
<!-- Generator: Adobe Illustrator 19.0.0, SVG Export Plug-In . SVG Version: 6.00 Build 0)  -->
<svg version="1.1" id="Capa_1" xmlns="http://www.w3.org/2000/svg" xmlns:xlink="http://www.w3.org/1999/xlink" x="0px" y="0px"
	 viewBox="0 0 480 480" style="enable-background:new 0 0 480 480;" xml:space="preserve">
<g>
	<g>
		<path d="M96,0v88.336L112.328,480h95.32l15.256-335.664c0.409-9.442,8.394-16.765,17.836-16.356
			c8.87,0.384,15.973,7.487,16.356,16.356L272.352,480h95.32L384,88.336V0H96z M112,88V48h32v13.496
			c0.042,14.861-5.864,29.12-16.4,39.6l-14.448,14.448L112,88z M352.328,464h-64.68l-14.56-320.384
			c-0.853-18.272-16.356-32.393-34.628-31.54c-17.078,0.797-30.743,14.462-31.54,31.54L192.352,464h-64.68l-13.6-326.744
			l24.856-24.856c13.54-13.473,21.127-31.803,21.072-50.904V48h160v13.496c-0.053,19.106,7.54,37.439,21.088,50.912l24.848,24.848
			L352.328,464z M368,87.832l-1.152,27.696l-14.448-14.44C341.866,90.61,335.96,76.354,336,61.496V48h32V87.832z M368,32H112V16h256
			V32z"/>
	</g>
</g>
<g>
</g>
<g>
</g>
<g>
</g>
<g>
</g>
<g>
</g>
<g>
</g>
<g>
</g>
<g>
</g>
<g>
</g>
<g>
</g>
<g>
</g>
<g>
</g>
<g>
</g>
<g>
</g>
<g>
</g>
</svg>
