<?xml version="1.0" encoding="iso-8859-1"?>
<!-- Generator: Adobe Illustrator 19.0.0, SVG Export Plug-In . SVG Version: 6.00 Build 0)  -->
<svg version="1.1" id="Capa_1" xmlns="http://www.w3.org/2000/svg" xmlns:xlink="http://www.w3.org/1999/xlink" x="0px" y="0px"
	 viewBox="0 0 480 480" style="enable-background:new 0 0 480 480;" xml:space="preserve">
<g>
	<g>
		<rect y="464" width="96" height="16"/>
	</g>
</g>
<g>
	<g>
		<rect x="448" y="464" width="32" height="16"/>
	</g>
</g>
<g>
	<g>
		<path d="M471.2,116.424L440,54.112V0H40v54.112L8.84,116.424C8.285,117.534,7.997,118.759,8,120v24
			c-0.024,19.006,13.368,35.388,32,39.144V400h168v32h-48v32h-48v16h320v-16H320v-32h-48v-32h168V183.144
			c18.632-3.755,32.024-20.138,32-39.144v-24C472.015,118.762,471.741,117.537,471.2,116.424z M451.048,112h-44.8l-12-48h32.8
			L451.048,112z M56,16h368v32H56V16z M344,128h48v16c0,13.255-10.745,24-24,24s-24-10.745-24-24V128z M343.064,112l-6-48h40.688
			l12,48H343.064z M328,128v16c0,13.255-10.745,24-24,24s-24-10.745-24-24v-16H328z M280,112V64h40.936l6,48H280z M216,112V64h48v48
			H216z M264,128v16c0,13.255-10.745,24-24,24s-24-10.745-24-24v-16H264z M153.064,112l6-48H200v48H153.064z M200,128v16
			c0,13.255-10.745,24-24,24s-24-10.745-24-24v-16H200z M90.248,112l12-48h40.688l-6,48H90.248z M136,128v16
			c0,13.255-10.745,24-24,24s-24-10.745-24-24v-16H136z M52.944,64h32.8l-12,48h-44.8L52.944,64z M24,144v-16h48v16
			c0,13.255-10.745,24-24,24S24,157.255,24,144z M304,448v16H176v-16H304z M224,432v-32h32v32H224z M424,384H56v-32h368V384z
			 M424,336H56V183.144c7.686-1.541,14.745-5.321,20.288-10.864c1.345-1.414,2.586-2.925,3.712-4.52
			c13.051,17.72,37.996,21.505,55.716,8.454c1.621-1.194,3.15-2.509,4.572-3.934c1.345-1.414,2.586-2.925,3.712-4.52
			c12.436,17.673,36.844,21.919,54.517,9.483c3.683-2.592,6.892-5.8,9.483-9.483c12.436,17.673,36.844,21.919,54.517,9.483
			c3.683-2.592,6.892-5.8,9.483-9.483c12.436,17.673,36.844,21.919,54.517,9.483c3.683-2.592,6.892-5.8,9.483-9.483
			c12.436,17.673,36.844,21.919,54.517,9.483c3.683-2.592,6.892-5.8,9.483-9.483c1.126,1.595,2.367,3.105,3.712,4.52
			c5.543,5.543,12.602,9.323,20.288,10.864V336z M456,144c-0.018,6.36-2.541,12.456-7.024,16.968
			c-9.37,9.376-24.565,9.38-33.941,0.011c-4.505-4.502-7.036-10.61-7.035-16.979v-16h48V144z"/>
	</g>
</g>
<g>
	<g>
		<rect x="224" y="360" width="32" height="16"/>
	</g>
</g>
<g>
	<g>
		<polygon points="206.416,272 190.416,200 160,200 160,216 177.584,216 193.584,288 288,288 288,272 		"/>
	</g>
</g>
<g>
	<g>
		<path d="M206.24,200l11.2,56h69.12l11.2-56H206.24z M273.44,240h-42.88l-4.8-24h52.48L273.44,240z"/>
	</g>
</g>
<g>
	<g>
		<rect x="208" y="304" width="16" height="16"/>
	</g>
</g>
<g>
	<g>
		<rect x="256" y="304" width="16" height="16"/>
	</g>
</g>
<g>
</g>
<g>
</g>
<g>
</g>
<g>
</g>
<g>
</g>
<g>
</g>
<g>
</g>
<g>
</g>
<g>
</g>
<g>
</g>
<g>
</g>
<g>
</g>
<g>
</g>
<g>
</g>
<g>
</g>
</svg>
