<?xml version="1.0" encoding="iso-8859-1"?>
<!-- Generator: Adobe Illustrator 19.0.0, SVG Export Plug-In . SVG Version: 6.00 Build 0)  -->
<svg version="1.1" id="Capa_1" xmlns="http://www.w3.org/2000/svg" xmlns:xlink="http://www.w3.org/1999/xlink" x="0px" y="0px"
	 viewBox="0 0 480.013 480.013" style="enable-background:new 0 0 480.013 480.013;" xml:space="preserve">
<g>
	<g>
		<path d="M368.006,376V0h-368v416c0.04,35.33,28.67,63.96,64,64h344v-0.496c35.069,4.418,67.08-20.429,71.498-55.498
			c0.335-2.656,0.502-5.329,0.502-8.006v-40H368.006z M64.006,464c-26.497-0.031-47.969-21.503-48-48V16h336v400
			c-0.007,18.379,7.905,35.87,21.712,48H64.006z M464.006,416c0,26.51-21.49,48-48,48c-26.51,0-48-21.49-48-48v-24h96V416z"/>
	</g>
</g>
<g>
	<g>
		<path d="M111.041,128.971c-5.744-5.745-13.535-8.972-21.659-8.971c-8.127-0.026-15.926,3.204-21.656,8.968L36.694,160l16,16
			L26.35,202.344l11.312,11.312l26.344-26.344l16,16l31.032-31.032C122.999,160.321,123,140.931,111.041,128.971z M99.726,160.968
			l-19.72,19.72L59.318,160l19.72-19.72c5.836-5.59,15.098-5.391,20.688,0.444C105.148,146.383,105.148,155.309,99.726,160.968z"/>
	</g>
</g>
<g>
	<g>
		<path d="M111.041,240.971c-5.744-5.745-13.535-8.972-21.659-8.971c-8.127-0.026-15.926,3.204-21.656,8.968L36.694,272l16,16
			L26.35,314.344l11.312,11.312l26.344-26.344l16,16l31.032-31.032C122.999,272.321,123,252.931,111.041,240.971z M99.726,272.968
			l-19.72,19.72L59.318,272l19.72-19.72c5.836-5.59,15.098-5.391,20.688,0.445C105.147,258.384,105.147,267.309,99.726,272.968z"/>
	</g>
</g>
<g>
	<g>
		<path d="M111.041,352.971c-5.744-5.745-13.535-8.972-21.659-8.971c-8.127-0.026-15.926,3.204-21.656,8.968L36.694,384l16,16
			L26.35,426.344l11.312,11.312l26.344-26.344l16,16l31.032-31.032C122.999,384.321,123,364.931,111.041,352.971z M99.726,384.968
			l-19.72,19.72L59.318,384l19.72-19.72c5.836-5.59,15.098-5.391,20.688,0.445C105.147,370.384,105.147,379.309,99.726,384.968z"/>
	</g>
</g>
<g>
	<g>
		<rect x="136.006" y="200" width="184" height="16"/>
	</g>
</g>
<g>
	<g>
		<rect x="136.006" y="312" width="184" height="16"/>
	</g>
</g>
<g>
	<g>
		<rect x="136.006" y="424" width="184" height="16"/>
	</g>
</g>
<g>
	<g>
		<path d="M231.038,40.968c-11.96-11.96-31.352-11.96-43.312,0l-3.72,3.72l-3.72-3.72c-11.96-11.96-31.352-11.96-43.312,0
			c-11.96,11.96-11.96,31.352,0,43.312l47.032,47.032l47.032-47.032C242.999,72.32,242.999,52.928,231.038,40.968z M219.726,72.968
			l-35.72,35.72l-26.344-26.344l-9.376-9.376c-5.708-5.72-5.699-14.984,0.021-20.693c2.74-2.735,6.452-4.272,10.323-4.275
			c3.877,0.01,7.593,1.548,10.344,4.28l15.032,15.032l15.032-15.032c5.836-5.59,15.098-5.391,20.688,0.444
			C225.148,58.383,225.148,67.309,219.726,72.968z"/>
	</g>
</g>
<g>
</g>
<g>
</g>
<g>
</g>
<g>
</g>
<g>
</g>
<g>
</g>
<g>
</g>
<g>
</g>
<g>
</g>
<g>
</g>
<g>
</g>
<g>
</g>
<g>
</g>
<g>
</g>
<g>
</g>
</svg>
