<?xml version="1.0" encoding="iso-8859-1"?>
<!-- Generator: Adobe Illustrator 19.0.0, SVG Export Plug-In . SVG Version: 6.00 Build 0)  -->
<svg version="1.1" id="Capa_1" xmlns="http://www.w3.org/2000/svg" xmlns:xlink="http://www.w3.org/1999/xlink" x="0px" y="0px"
	 viewBox="0 0 480 480" style="enable-background:new 0 0 480 480;" xml:space="preserve">
<g>
	<g>
		<path d="M376,69.6V0H104v69.6l-32,48v21.168c-0.021,19.005,13.37,35.386,32,39.144V480h272V177.888
			c18.63-3.758,32.021-20.139,32-39.144V117.6L376,69.6z M385.056,112h-43.288l-10.664-32h32.616L385.056,112z M120,16h240v48H120
			V16z M280,128h48v10.744c0,13.255-10.745,24-24,24s-24-10.745-24-24V128z M278.776,112l-5.336-32h40.792l10.664,32H278.776z
			 M264,128v10.744c0,13.255-10.745,24-24,24s-24-10.745-24-24V128H264z M217.44,112l5.336-32h34.448l5.336,32H217.44z M155.104,112
			l10.664-32h40.8l-5.344,32H155.104z M200,128v10.744c0,13.255-10.745,24-24,24s-24-10.745-24-24V128H200z M116.28,80H120h28.896
			l-10.664,32H94.944L116.28,80z M88,138.744V128h48v10.744c0,13.255-10.745,24-24,24S88,151.999,88,138.744z M360,464H120v-48h240
			V464z M360,400H120V177.888c7.687-1.54,14.746-5.32,20.288-10.864c1.345-1.412,2.586-2.92,3.712-4.512
			c12.436,17.673,36.844,21.919,54.517,9.483c3.683-2.592,6.892-5.8,9.483-9.483c12.436,17.673,36.844,21.919,54.517,9.483
			c3.683-2.592,6.892-5.8,9.483-9.483c12.436,17.673,36.844,21.919,54.517,9.483c3.683-2.592,6.892-5.8,9.483-9.483
			c1.126,1.595,2.366,3.106,3.712,4.52c5.543,5.541,12.602,9.318,20.288,10.856V400z M392,138.744c0,13.255-10.745,24-24,24
			s-24-10.745-24-24V128h48V138.744z"/>
	</g>
</g>
<g>
	<g>
		<rect x="208" y="32" width="16" height="16"/>
	</g>
</g>
<g>
	<g>
		<rect x="240" y="32" width="32" height="16"/>
	</g>
</g>
<g>
	<g>
		<rect x="208" y="432" width="64" height="16"/>
	</g>
</g>
<g>
	<g>
		<path d="M168,328v56h144v-56H168z M296,368H184v-24h112V368z"/>
	</g>
</g>
<g>
	<g>
		<polygon points="214.416,264 198.416,192 168,192 168,208 185.584,208 201.584,280 296,280 296,264 		"/>
	</g>
</g>
<g>
	<g>
		<path d="M214.24,192l11.2,56h69.12l11.2-56H214.24z M281.44,232h-42.88l-4.8-24h52.48L281.44,232z"/>
	</g>
</g>
<g>
	<g>
		<rect x="216" y="296" width="16" height="16"/>
	</g>
</g>
<g>
	<g>
		<rect x="264" y="296" width="16" height="16"/>
	</g>
</g>
<g>
</g>
<g>
</g>
<g>
</g>
<g>
</g>
<g>
</g>
<g>
</g>
<g>
</g>
<g>
</g>
<g>
</g>
<g>
</g>
<g>
</g>
<g>
</g>
<g>
</g>
<g>
</g>
<g>
</g>
</svg>
