<?xml version="1.0" encoding="iso-8859-1"?>
<!-- Generator: Adobe Illustrator 19.0.0, SVG Export Plug-In . SVG Version: 6.00 Build 0)  -->
<svg version="1.1" id="Capa_1" xmlns="http://www.w3.org/2000/svg" xmlns:xlink="http://www.w3.org/1999/xlink" x="0px" y="0px"
	 viewBox="0 0 480 480" style="enable-background:new 0 0 480 480;" xml:space="preserve">
<g>
	<g>
		<rect x="144" y="32" width="32" height="16"/>
	</g>
</g>
<g>
	<g>
		<rect x="112" y="32" width="16" height="16"/>
	</g>
</g>
<g>
	<g>
		<rect x="112" y="432" width="64" height="16"/>
	</g>
</g>
<g>
	<g>
		<path d="M440,136H272V24c0-13.255-10.745-24-24-24H40C26.745,0,16,10.745,16,24v432c0,13.255,10.745,24,24,24h208
			c13.255,0,24-10.745,24-24V344h168c13.255,0,24-10.745,24-24V160C464,146.745,453.255,136,440,136z M32,24c0-4.418,3.582-8,8-8
			h208c4.418,0,8,3.582,8,8v40H32V24z M256,456c0,4.418-3.582,8-8,8H40c-4.418,0-8-3.582-8-8v-40h224V456z M256,400H32V80h224v56
			h-56c-13.255,0-24,10.745-24,24v160c0,13.255,10.745,24,24,24h56V400z M448,320c0,4.418-3.582,8-8,8H200c-4.418,0-8-3.582-8-8V160
			c0-4.418,3.582-8,8-8h240c4.418,0,8,3.582,8,8V320z"/>
	</g>
</g>
<g>
	<g>
		<rect x="64" y="200" width="96" height="16"/>
	</g>
</g>
<g>
	<g>
		<rect x="96" y="264" width="64" height="16"/>
	</g>
</g>
<g>
	<g>
		<rect x="80" y="232" width="80" height="16"/>
	</g>
</g>
<g>
	<g>
		<rect x="48" y="232" width="16" height="16"/>
	</g>
</g>
<g>
	<g>
		<path d="M208,200v80h96v-80H208z M288,264h-64v-48h64V264z"/>
	</g>
</g>
<g>
	<g>
		<rect x="240" y="232" width="32" height="16"/>
	</g>
</g>
<g>
	<g>
		<rect x="208" y="296" width="32" height="16"/>
	</g>
</g>
<g>
	<g>
		<rect x="256" y="296" width="80" height="16"/>
	</g>
</g>
<g>
	<g>
		<polygon points="384,168 384,184 416,184 416,200 432,200 432,168 		"/>
	</g>
</g>
<g>
	<g>
		<rect x="416" y="216" width="16" height="16"/>
	</g>
</g>
<g>
</g>
<g>
</g>
<g>
</g>
<g>
</g>
<g>
</g>
<g>
</g>
<g>
</g>
<g>
</g>
<g>
</g>
<g>
</g>
<g>
</g>
<g>
</g>
<g>
</g>
<g>
</g>
<g>
</g>
</svg>
