<?xml version="1.0" encoding="iso-8859-1"?>
<!-- Generator: Adobe Illustrator 19.0.0, SVG Export Plug-In . SVG Version: 6.00 Build 0)  -->
<svg version="1.1" id="Capa_1" xmlns="http://www.w3.org/2000/svg" xmlns:xlink="http://www.w3.org/1999/xlink" x="0px" y="0px"
	 viewBox="0 0 480.116 480.116" style="enable-background:new 0 0 480.116 480.116;" xml:space="preserve">
<g>
	<g>
		<path d="M476.458,56.53c-2.245-1.478-5.082-1.731-7.552-0.672l-108.952,46.656l-32.432-12.976
			c1.132-48.305-37.11-88.381-85.415-89.513s-88.381,37.11-89.513,85.415c-0.032,1.366-0.032,2.732,0,4.098l-32.432,12.976
			L11.21,55.858c-4.061-1.741-8.764,0.14-10.505,4.201c-0.427,0.996-0.647,2.068-0.647,3.151v360.904c0,3.2,1.907,6.091,4.848,7.352
			l112,48c1.951,0.839,4.156,0.868,6.128,0.08l117.024-46.816l117.024,46.816c0.947,0.375,1.957,0.568,2.976,0.568
			c1.084,0,2.156-0.221,3.152-0.648l112-48c2.941-1.261,4.848-4.152,4.848-7.352V63.21C480.058,60.519,478.705,58.009,476.458,56.53
			z M112.058,459.978l-96-41.136V75.314l96,41.144V459.978z M189.546,37.034c27.88-27.911,73.109-27.937,101.02-0.056
			c24.826,24.799,27.964,63.957,7.404,92.392l-57.912,80.176l-57.912-80.176C161.493,100.981,164.635,61.771,189.546,37.034z
			 M272.058,223.21c0,17.673-14.327,32-32,32c-17.673,0-32-14.327-32-32c-0.029-7.471,2.58-14.713,7.368-20.448l18.152,25.128
			c2.588,3.581,7.589,4.386,11.17,1.798c0.691-0.5,1.298-1.107,1.798-1.798l18.152-25.128
			C269.483,208.498,272.089,215.74,272.058,223.21z M352.058,460.298l-109.024-43.616c-1.911-0.76-4.041-0.76-5.952,0
			l-109.024,43.616V116.634l26.536-10.616c2.556,11.795,7.521,22.934,14.584,32.72l36.712,50.832
			c-8.89,8.935-13.866,21.036-13.832,33.64c0,26.51,21.49,48,48,48c26.51,0,48-21.49,48-48c0.034-12.604-4.942-24.705-13.832-33.64
			l36.712-50.832c7.063-9.786,12.028-20.925,14.584-32.72l26.536,10.616V460.298z M464.058,418.842l-96,41.136V116.482l96-41.168
			V418.842z"/>
	</g>
</g>
<g>
	<g>
		<path d="M240.058,39.21c-26.51,0-48,21.49-48,48c0.031,26.497,21.503,47.969,48,48c26.51,0,48-21.49,48-48
			C288.058,60.7,266.568,39.21,240.058,39.21z M240.058,119.21c-17.673,0-32-14.327-32-32c0-17.673,14.327-32,32-32
			c17.673,0,32,14.327,32,32C272.058,104.883,257.731,119.21,240.058,119.21z"/>
	</g>
</g>
<g>
	<g>
		<path d="M248.97,371.058c-5.719-2.297-12.105-2.297-17.824,0l-74.056,29.6l5.944,14.856l74.056-29.6
			c1.908-0.763,4.036-0.763,5.944,0l74.056,29.6l5.944-14.856L248.97,371.058z"/>
	</g>
</g>
<g>
	<g>
		<path d="M248.962,323.066c-5.719-2.297-12.105-2.297-17.824,0l-74.056,29.6l5.944,14.856l74.056-29.6
			c1.908-0.763,4.036-0.763,5.944,0l74.056,29.6l5.944-14.856L248.962,323.066z"/>
	</g>
</g>
<g>
</g>
<g>
</g>
<g>
</g>
<g>
</g>
<g>
</g>
<g>
</g>
<g>
</g>
<g>
</g>
<g>
</g>
<g>
</g>
<g>
</g>
<g>
</g>
<g>
</g>
<g>
</g>
<g>
</g>
</svg>
