<?xml version="1.0" encoding="iso-8859-1"?>
<!-- Generator: Adobe Illustrator 19.0.0, SVG Export Plug-In . SVG Version: 6.00 Build 0)  -->
<svg version="1.1" id="Capa_1" xmlns="http://www.w3.org/2000/svg" xmlns:xlink="http://www.w3.org/1999/xlink" x="0px" y="0px"
	 viewBox="0 0 480 480" style="enable-background:new 0 0 480 480;" xml:space="preserve">
<g>
	<g>
		<path d="M216,240h-8v-40c0-4.418-3.582-8-8-8h-8V54.624c0-10.666-8.646-19.312-19.311-19.313c-5.122,0-10.035,2.035-13.657,5.657
			l-25.384,25.384C130.021,69.966,127.987,74.88,128,80v112h-8c-4.418,0-8,3.582-8,8v40h-8c-4.418,0-8,3.582-8,8v224
			c0,4.418,3.582,8,8,8h112c4.418,0,8-3.582,8-8V248C224,243.582,220.418,240,216,240z M144,80c0.001-0.878,0.349-1.721,0.968-2.344
			l25.376-25.376c1.448-1.23,3.619-1.053,4.849,0.394c0.467,0.549,0.749,1.231,0.807,1.95V192h-32V80z M128,208h64v32h-64V208z
			 M208,464h-96V256h96V464z"/>
	</g>
</g>
<g>
	<g>
		<path d="M376,224H264c-4.418,0-8,3.582-8,8v240c0,4.418,3.582,8,8,8h112c4.418,0,8-3.582,8-8V232C384,227.582,380.418,224,376,224
			z M368,464h-96V240h96V464z"/>
	</g>
</g>
<g>
	<g>
		<rect x="176" y="432" width="16" height="16"/>
	</g>
</g>
<g>
	<g>
		<rect x="176" y="384" width="16" height="32"/>
	</g>
</g>
<g>
	<g>
		<rect x="288" y="256" width="16" height="16"/>
	</g>
</g>
<g>
	<g>
		<rect x="288" y="288" width="16" height="32"/>
	</g>
</g>
<g>
	<g>
		<rect x="64" y="56" width="16" height="16"/>
	</g>
</g>
<g>
	<g>
		<rect x="80" y="72" width="16" height="16"/>
	</g>
</g>
<g>
	<g>
		<rect x="48" y="72" width="16" height="16"/>
	</g>
</g>
<g>
	<g>
		<rect x="64" y="88" width="16" height="16"/>
	</g>
</g>
<g>
	<g>
		<rect x="224" width="16" height="16"/>
	</g>
</g>
<g>
	<g>
		<rect x="240" y="16" width="16" height="16"/>
	</g>
</g>
<g>
	<g>
		<rect x="208" y="16" width="16" height="16"/>
	</g>
</g>
<g>
	<g>
		<rect x="224" y="32" width="16" height="16"/>
	</g>
</g>
<g>
	<g>
		<rect x="400" y="176" width="16" height="16"/>
	</g>
</g>
<g>
	<g>
		<rect x="416" y="192" width="16" height="16"/>
	</g>
</g>
<g>
	<g>
		<rect x="384" y="192" width="16" height="16"/>
	</g>
</g>
<g>
	<g>
		<rect x="400" y="208" width="16" height="16"/>
	</g>
</g>
<g>
	<g>
		<rect x="280" y="144" width="16" height="16"/>
	</g>
</g>
<g>
	<g>
		<rect x="360" y="40" width="16" height="16"/>
	</g>
</g>
<g>
</g>
<g>
</g>
<g>
</g>
<g>
</g>
<g>
</g>
<g>
</g>
<g>
</g>
<g>
</g>
<g>
</g>
<g>
</g>
<g>
</g>
<g>
</g>
<g>
</g>
<g>
</g>
<g>
</g>
</svg>
