<?xml version="1.0" encoding="iso-8859-1"?>
<!-- Generator: Adobe Illustrator 19.0.0, SVG Export Plug-In . SVG Version: 6.00 Build 0)  -->
<svg version="1.1" id="Capa_1" xmlns="http://www.w3.org/2000/svg" xmlns:xlink="http://www.w3.org/1999/xlink" x="0px" y="0px"
	 viewBox="0 0 480 480" style="enable-background:new 0 0 480 480;" xml:space="preserve">
<g>
	<g>
		<path d="M447.84,355.792l-106.008-49.888L188.688,14.944C183.102,4.57,171.681-1.268,160,0.28L72,0
			C32.254,0.044,0.044,32.254,0,72v104h0.608l22.248,281.888c1.041,12.458,11.427,22.056,23.928,22.112h2.4
			c12.501-0.056,22.887-9.654,23.928-22.112L95.144,179.2c4.422,2.502,7.933,6.346,10.024,10.976l110.592,247.2
			c11.603,25.909,37.332,42.596,65.72,42.624H424c30.913-0.035,55.965-25.087,56-56v-17.536
			C479.945,384.786,467.432,365.07,447.84,355.792z M152,27.952c-0.018-6.601,5.319-11.966,11.919-11.984
			c4.449-0.012,8.536,2.448,10.609,6.384L328,313.976v10.072c0.018,6.601-5.319,11.966-11.919,11.984
			c-4.449,0.012-8.536-2.448-10.609-6.384L153.376,40.624c-0.901-1.712-1.373-3.617-1.376-5.552V27.952z M57.184,456.624
			c-0.326,4.173-3.814,7.389-8,7.376h-2.4c-4.186,0.013-7.674-3.203-8-7.376L16.656,176h62.68L57.184,456.624z M464,424
			c-0.026,22.08-17.92,39.974-40,40H281.48c-22.077-0.018-42.089-12.99-51.12-33.136l-110.592-247.2
			c-6.451-14.388-20.744-23.652-36.512-23.664H16V72c0.035-30.913,25.087-55.965,56-56h66.688
			c-1.774,3.734-2.692,7.818-2.688,11.952v7.12c-0.003,4.534,1.095,9,3.2,13.016l152.112,288.968
			c7.183,13.664,24.084,18.918,37.748,11.735c9.015-4.739,14.739-14.007,14.94-24.191l97.032,45.672
			c13.994,6.626,22.931,20.709,22.968,36.192V424z"/>
	</g>
</g>
<g>
	<g>
		<rect x="240" y="32" width="16" height="16"/>
	</g>
</g>
<g>
	<g>
		<rect x="256" y="16" width="16" height="16"/>
	</g>
</g>
<g>
	<g>
		<rect x="272" y="32" width="16" height="16"/>
	</g>
</g>
<g>
	<g>
		<rect x="256" y="48" width="16" height="16"/>
	</g>
</g>
<g>
	<g>
		<rect x="424" y="240" width="16" height="16"/>
	</g>
</g>
<g>
	<g>
		<rect x="440" y="224" width="16" height="16"/>
	</g>
</g>
<g>
	<g>
		<rect x="456" y="240" width="16" height="16"/>
	</g>
</g>
<g>
	<g>
		<rect x="440" y="256" width="16" height="16"/>
	</g>
</g>
<g>
	<g>
		<rect x="328" y="176" width="16" height="16"/>
	</g>
</g>
<g>
	<g>
		<rect x="440" y="16" width="16" height="16"/>
	</g>
</g>
<g>
</g>
<g>
</g>
<g>
</g>
<g>
</g>
<g>
</g>
<g>
</g>
<g>
</g>
<g>
</g>
<g>
</g>
<g>
</g>
<g>
</g>
<g>
</g>
<g>
</g>
<g>
</g>
<g>
</g>
</svg>
