<?xml version="1.0" encoding="iso-8859-1"?>
<!-- Generator: Adobe Illustrator 19.0.0, SVG Export Plug-In . SVG Version: 6.00 Build 0)  -->
<svg version="1.1" id="Capa_1" xmlns="http://www.w3.org/2000/svg" xmlns:xlink="http://www.w3.org/1999/xlink" x="0px" y="0px"
	 viewBox="0 0 480.001 480.001" style="enable-background:new 0 0 480.001 480.001;" xml:space="preserve">
<g>
	<g>
		<path d="M450.633,217.809l-199.432-55.024c-1.04-0.288-2.104-0.432-3.2-0.64v-34.64c35.069-4.418,59.916-36.429,55.498-71.498
			C299.08,20.938,267.07-3.909,232.001,0.509c-31.998,4.031-55.997,31.241-56,63.492h16c0-26.51,21.49-48,48-48
			c26.51,0,48,21.49,48,48s-21.49,48-48,48h-8v50.36c-1.112,0.24-2.232,0.44-3.328,0.8L28.145,225.369
			c-16.774,5.146-28.204,20.663-28.144,38.208v8.424c0.021,19.002,13.387,35.375,32,39.2v144.8c0,13.255,10.745,24,24,24h368
			c13.255,0,24-10.745,24-24v-144.8c18.613-3.825,31.979-20.198,32-39.2v-15.632C479.965,238.385,467.961,222.623,450.633,217.809z
			 M432.001,456.001c0,4.418-3.582,8-8,8h-368c-4.418,0-8-3.582-8-8v-152c0-4.418,3.582-8,8-8h368c4.418,0,8,3.582,8,8V456.001z
			 M464.001,272.001c-0.046,10.813-7.318,20.261-17.76,23.072c-3.643-9.091-12.446-15.057-22.24-15.072h-368
			c-9.794,0.015-18.597,5.981-22.24,15.072c-10.442-2.811-17.714-12.258-17.76-23.072v-8.424
			c-0.033-10.526,6.825-19.833,16.888-22.92l200.528-62.256c4.385-1.362,9.069-1.437,13.496-0.216l199.488,55.048
			c10.388,2.897,17.58,12.351,17.6,23.136V272.001z"/>
	</g>
</g>
<g>
</g>
<g>
</g>
<g>
</g>
<g>
</g>
<g>
</g>
<g>
</g>
<g>
</g>
<g>
</g>
<g>
</g>
<g>
</g>
<g>
</g>
<g>
</g>
<g>
</g>
<g>
</g>
<g>
</g>
</svg>
