<?xml version="1.0" encoding="iso-8859-1"?>
<!-- Generator: Adobe Illustrator 19.0.0, SVG Export Plug-In . SVG Version: 6.00 Build 0)  -->
<svg version="1.1" id="Capa_1" xmlns="http://www.w3.org/2000/svg" xmlns:xlink="http://www.w3.org/1999/xlink" x="0px" y="0px"
	 viewBox="0 0 480 480" style="enable-background:new 0 0 480 480;" xml:space="preserve">
<g>
	<g>
		<path d="M396.96,320c0.544-0.48,1.152-0.856,1.672-1.376c6.02-5.987,9.393-14.134,9.368-22.624
			c0.024-8.49-3.349-16.636-9.368-22.624c-0.52-0.52-1.128-0.896-1.672-1.376c0.544-0.48,1.152-0.856,1.672-1.376
			c12.492-12.496,12.492-32.752,0-45.248c-0.8-0.8-1.56-1.488-2.4-2.16c0.272-0.256,0.539-0.523,0.8-0.8
			c12.38-12.612,12.192-32.873-0.42-45.253c-5.946-5.837-13.935-9.124-22.268-9.163h-54.176c-4.418,0-8-3.582-8-8V72
			c0-22.091-17.909-40-40-40c-22.091,0-40,17.909-40,40v65.368c0.004,2.123-0.837,4.161-2.336,5.664l-45.968,45.96
			c-1.49-11.964-11.64-20.956-23.696-20.992h-48c-13.255,0-24,10.745-24,24v176c0,13.255,10.745,24,24,24h48
			c10.134-0.042,19.15-6.445,22.528-16H376c17.673,0.001,32.001-14.326,32.001-31.999c0-8.486-3.37-16.624-9.369-22.625
			C398.112,320.856,397.504,320.48,396.96,320z M168.168,368c0,4.418-3.582,8-8,8h-48c-4.418,0-8-3.582-8-8V192c0-4.418,3.582-8,8-8
			h48c4.418,0,8,3.582,8,8V368z M376,280c8.837-0.003,16.002,7.159,16.005,15.995c0.001,4.248-1.687,8.322-4.693,11.325
			c-3.008,2.987-7.072,4.669-11.312,4.68h-31.832v16H376c8.837,0,16,7.163,16,16s-7.163,16-16,16H184.168V211.312l56.976-56.968
			c4.514-4.494,7.044-10.606,7.024-16.976V72c0-13.255,10.745-24,24-24s24,10.745,24,24v88c0,13.255,10.745,24,24,24h54.176
			c4.302,0.016,8.413,1.777,11.392,4.88c2.959,2.942,4.619,6.947,4.608,11.12c-0.017,4.302-1.778,8.412-4.88,11.392
			c-2.943,2.959-6.947,4.618-11.12,4.608h-30.176v16H376c8.837-0.003,16.002,7.159,16.005,15.995
			c0.001,4.248-1.687,8.322-4.693,11.325c-3.008,2.987-7.072,4.669-11.312,4.68h-31.832v16H376z"/>
	</g>
</g>
<g>
	<g>
		<path d="M240,0C107.452,0,0,107.452,0,240s107.452,240,240,240s240-107.452,240-240C479.85,107.514,372.486,0.15,240,0z M240,464
			C116.288,464,16,363.712,16,240S116.288,16,240,16s224,100.288,224,224C463.863,363.655,363.655,463.863,240,464z"/>
	</g>
</g>
<g>
</g>
<g>
</g>
<g>
</g>
<g>
</g>
<g>
</g>
<g>
</g>
<g>
</g>
<g>
</g>
<g>
</g>
<g>
</g>
<g>
</g>
<g>
</g>
<g>
</g>
<g>
</g>
<g>
</g>
</svg>
