<?xml version="1.0" encoding="iso-8859-1"?>
<!-- Generator: Adobe Illustrator 19.0.0, SVG Export Plug-In . SVG Version: 6.00 Build 0)  -->
<svg version="1.1" id="Capa_1" xmlns="http://www.w3.org/2000/svg" xmlns:xlink="http://www.w3.org/1999/xlink" x="0px" y="0px"
	 viewBox="0 0 480 480" style="enable-background:new 0 0 480 480;" xml:space="preserve">
<g>
	<g>
		<path d="M240,0C107.452,0,0,107.452,0,240s107.452,240,240,240s240-107.452,240-240C479.85,107.514,372.486,0.15,240,0z M240,16
			c52.897-0.037,104.084,18.734,144.416,52.96l-31.072,46.608c-1.879,2.821-1.776,6.52,0.256,9.232l18.68,24.904l-32.4,19.44
			c-3.216,1.93-4.659,5.835-3.472,9.392l7.256,21.792l-5.016,20.064l-4.12-2.056l-6.952-20.856
			c-0.391-1.178-1.051-2.249-1.928-3.128l-24-24c-3.129-3.12-8.194-3.112-11.314,0.017c-0.602,0.604-1.104,1.301-1.486,2.063
			l-17.312,34.632L246.944,164c-1.186-2.079-3.241-3.517-5.6-3.92l-48-8c-3.464-0.578-6.901,1.171-8.472,4.312l-16,32
			c-1.128,2.253-1.128,4.907,0,7.16l5.712,11.424l-28.8,36c-1.152,1.421-1.781,3.195-1.784,5.024v38.112l-23.512,47.032
			L71.328,220.8c-1.086-2.476-3.349-4.237-6.016-4.68l-47.024-7.84C34.195,98.026,128.604,16.15,240,16z M176.552,454.792h0.008
			L233.536,432h67.8l21.44,16.08C276.175,466.691,224.662,469.055,176.552,454.792z M420.688,372.184l-13.968-9.32l-7.136-21.4
			c-1.321-3.961-5.468-6.24-9.52-5.232L368,341.752V316.28l39.472-26.312l40.296,33.592
			C440.799,340.831,431.702,357.166,420.688,372.184z M413.16,273.856c-2.729-2.289-6.643-2.497-9.6-0.512l-48,32
			c-2.225,1.484-3.56,3.982-3.56,6.656v40c0.001,4.418,3.584,7.999,8.002,7.998c0.652,0,1.301-0.08,1.934-0.238l24.8-6.2
			l5.664,16.976c0.562,1.688,1.671,3.141,3.152,4.128l15.2,10.112c-19.732,23.243-43.976,42.24-71.264,55.84h0L306.664,416h-76.2
			l-76.744,30.696C70.38,411.816,16.096,330.345,16,240c0-5.312,0.256-10.568,0.616-15.784L58.4,231.2l54.264,124
			c1.242,2.849,4.021,4.72,7.128,4.8H120c3.032,0.001,5.805-1.712,7.16-4.424l32-64c0.554-1.111,0.841-2.335,0.84-3.576v-37.192
			L190.248,213c1.948-2.438,2.301-5.786,0.904-8.576L184.944,192l11.568-23.136l38.4,6.4L265.056,228
			c2.191,3.837,7.077,5.171,10.914,2.98c1.373-0.784,2.483-1.958,3.19-3.372l19.04-38.072l14.816,14.816l7.408,22.208
			c0.669,2.01,2.107,3.673,4,4.624l16,8c3.953,1.974,8.757,0.371,10.732-3.582c0.26-0.521,0.463-1.069,0.604-1.634l8-32
			c0.375-1.476,0.316-3.028-0.168-4.472L353.6,179.56l34.504-20.696c3.792-2.268,5.028-7.18,2.761-10.972
			c-0.143-0.239-0.298-0.47-0.465-0.692l-20.6-27.472l26.592-39.888c60.592,58.984,82.729,147.102,57.208,227.72L413.16,273.856z"/>
	</g>
</g>
<g>
</g>
<g>
</g>
<g>
</g>
<g>
</g>
<g>
</g>
<g>
</g>
<g>
</g>
<g>
</g>
<g>
</g>
<g>
</g>
<g>
</g>
<g>
</g>
<g>
</g>
<g>
</g>
<g>
</g>
</svg>
