<?xml version="1.0" encoding="iso-8859-1"?>
<!-- Generator: Adobe Illustrator 19.0.0, SVG Export Plug-In . SVG Version: 6.00 Build 0)  -->
<svg version="1.1" id="Capa_1" xmlns="http://www.w3.org/2000/svg" xmlns:xlink="http://www.w3.org/1999/xlink" x="0px" y="0px"
	 viewBox="0 0 480 480" style="enable-background:new 0 0 480 480;" xml:space="preserve">
<g>
	<g>
		<path d="M464,272V96c-0.031-26.497-21.503-47.969-48-48h-32c-26.497,0.031-47.969,21.503-48,48h16c0-17.673,14.327-32,32-32h32
			c17.673,0,32,14.327,32,32v176H32V96c0-17.673,14.327-32,32-32h32c17.673,0,32,14.327,32,32h16c-0.031-26.497-21.503-47.969-48-48
			H64c-26.497,0.031-47.969,21.503-48,48v176H0v16h16v72c0.044,39.746,32.254,71.956,72,72h72c39.746-0.044,71.956-32.254,72-72v-40
			h16v40c0.044,39.746,32.254,71.956,72,72h72c39.746-0.044,71.956-32.254,72-72v-72h16v-16H464z M216,360
			c-0.035,30.913-25.087,55.965-56,56H88c-30.913-0.035-55.965-25.087-56-56v-72h184V360z M248,304h-16v-16h16V304z M448,360
			c-0.035,30.913-25.087,55.965-56,56h-72c-30.913-0.035-55.965-25.087-56-56v-72h184V360z"/>
	</g>
</g>
<g>
	<g>
		<rect x="81.088" y="340" transform="matrix(0.7071 -0.7071 0.7071 0.7071 -207.411 195.2651)" width="101.824" height="16"/>
	</g>
</g>
<g>
	<g>
		
			<rect x="313.112" y="339.976" transform="matrix(0.7071 -0.7071 0.7071 0.7071 -139.4356 359.3239)" width="101.825" height="16"/>
	</g>
</g>
<g>
	<g>
		<rect x="135.713" y="363.965" transform="matrix(0.7071 -0.7071 0.7071 0.7071 -214.9863 224.9063)" width="56.56" height="16"/>
	</g>
</g>
<g>
	<g>
		<rect x="367.714" y="364.003" transform="matrix(0.7071 -0.7071 0.7071 0.7071 -147.0618 388.9674)" width="56.56" height="16"/>
	</g>
</g>
<g>
</g>
<g>
</g>
<g>
</g>
<g>
</g>
<g>
</g>
<g>
</g>
<g>
</g>
<g>
</g>
<g>
</g>
<g>
</g>
<g>
</g>
<g>
</g>
<g>
</g>
<g>
</g>
<g>
</g>
</svg>
