<?xml version="1.0" encoding="iso-8859-1"?>
<!-- Generator: Adobe Illustrator 19.0.0, SVG Export Plug-In . SVG Version: 6.00 Build 0)  -->
<svg version="1.1" id="Capa_1" xmlns="http://www.w3.org/2000/svg" xmlns:xlink="http://www.w3.org/1999/xlink" x="0px" y="0px"
	 viewBox="0 0 480 480" style="enable-background:new 0 0 480 480;" xml:space="preserve">
<g>
	<g>
		<path d="M0,104v272h480V104H0z M464,360H16V120h448V360z"/>
	</g>
</g>
<g>
	<g>
		<rect x="304" y="168" width="16" height="16"/>
	</g>
</g>
<g>
	<g>
		<rect x="304" y="200" width="16" height="16"/>
	</g>
</g>
<g>
	<g>
		<rect x="304" y="232" width="16" height="16"/>
	</g>
</g>
<g>
	<g>
		<rect x="304" y="264" width="16" height="16"/>
	</g>
</g>
<g>
	<g>
		<rect x="304" y="296" width="16" height="16"/>
	</g>
</g>
<g>
	<g>
		<rect x="304" y="328" width="16" height="16"/>
	</g>
</g>
<g>
	<g>
		<path d="M248,168v-5.6c0.023-14.58-11.778-26.419-26.358-26.442c-5.241-0.008-10.366,1.544-14.722,4.458L165.6,168h-3.2
			l-41.352-27.568c-12.13-8.09-28.522-4.815-36.612,7.316c-2.894,4.339-4.437,9.437-4.436,14.652v5.6H48v48h16v128h192V216h16v-48
			H248z M96,162.4c-0.022-5.744,4.617-10.418,10.36-10.439c2.079-0.008,4.114,0.608,5.84,1.767L133.6,168H96V162.4z M152,328H80V216
			h72V328z M152,200H64v-16h88V200z M215.792,153.752c4.765-3.208,11.227-1.946,14.435,2.819c1.16,1.722,1.777,3.753,1.773,5.829
			v5.6h-37.6L215.792,153.752z M240,328h-72V216h72V328z M256,200h-88v-16h88V200z"/>
	</g>
</g>
<g>
	<g>
		<rect x="304" y="136" width="16" height="16"/>
	</g>
</g>
<g>
	<g>
		<rect x="384" y="328" width="64" height="16"/>
	</g>
</g>
<g>
	<g>
		<rect x="352" y="296" width="96" height="16"/>
	</g>
</g>
<g>
	<g>
		<path d="M400,200h-16c-8.837,0-16-7.163-16-16s7.163-16,16-16h16c8.837,0,16,7.163,16,16h16c0-17.673-14.327-32-32-32v-16h-16v16
			c-17.673,0-32,14.327-32,32s14.327,32,32,32h16c8.837,0,16,7.163,16,16s-7.163,16-16,16h-16c-8.837,0-16-7.163-16-16h-16
			c0,17.673,14.327,32,32,32v16h16v-16c17.673,0,32-14.327,32-32S417.673,200,400,200z"/>
	</g>
</g>
<g>
</g>
<g>
</g>
<g>
</g>
<g>
</g>
<g>
</g>
<g>
</g>
<g>
</g>
<g>
</g>
<g>
</g>
<g>
</g>
<g>
</g>
<g>
</g>
<g>
</g>
<g>
</g>
<g>
</g>
</svg>
