<?xml version="1.0" encoding="iso-8859-1"?>
<!-- Generator: Adobe Illustrator 19.0.0, SVG Export Plug-In . SVG Version: 6.00 Build 0)  -->
<svg version="1.1" id="Capa_1" xmlns="http://www.w3.org/2000/svg" xmlns:xlink="http://www.w3.org/1999/xlink" x="0px" y="0px"
	 viewBox="0 0 480.009 480.009" style="enable-background:new 0 0 480.009 480.009;" xml:space="preserve">
<g>
	<g>
		<path d="M368.004,64.009v-56c0.004-4.418-3.575-8.003-7.993-8.007c-1.317-0.001-2.613,0.323-3.775,0.943L240.004,62.936
			L123.772,0.944c-3.898-2.081-8.744-0.608-10.825,3.289c-0.62,1.162-0.944,2.458-0.943,3.775v56h-112v96h16v320h448v-320h16v-96
			H368.004z M352.004,21.345v42.664h-80L352.004,21.345z M128.004,21.345l80,42.664h-80V21.345z M176.004,464.009h-144v-304h144
			V464.009z M176.004,144.009h-160v-64h160V144.009z M288.004,464.009h-96v-304h96V464.009z M288.004,144.009h-96v-64h96V144.009z
			 M448.004,464.009h-144v-304h144V464.009z M464.004,144.009h-160v-64h160V144.009z"/>
	</g>
</g>
<g>
	<g>
		<rect x="48.004" y="416.009" width="16" height="32"/>
	</g>
</g>
<g>
	<g>
		<rect x="48.004" y="336.009" width="16" height="64"/>
	</g>
</g>
<g>
	<g>
		<rect x="416.004" y="176.009" width="16" height="32"/>
	</g>
</g>
<g>
	<g>
		<rect x="416.004" y="224.009" width="16" height="64"/>
	</g>
</g>
<g>
</g>
<g>
</g>
<g>
</g>
<g>
</g>
<g>
</g>
<g>
</g>
<g>
</g>
<g>
</g>
<g>
</g>
<g>
</g>
<g>
</g>
<g>
</g>
<g>
</g>
<g>
</g>
<g>
</g>
</svg>
