<?xml version="1.0" encoding="iso-8859-1"?>
<!-- Generator: Adobe Illustrator 19.0.0, SVG Export Plug-In . SVG Version: 6.00 Build 0)  -->
<svg version="1.1" id="Capa_1" xmlns="http://www.w3.org/2000/svg" xmlns:xlink="http://www.w3.org/1999/xlink" x="0px" y="0px"
	 viewBox="0 0 479.717 479.717" style="enable-background:new 0 0 479.717 479.717;" xml:space="preserve">
<g>
	<g>
		<path d="M171.867,135.716c-17.673,0-32,14.327-32,32s14.327,32,32,32s32-14.327,32-32S189.54,135.716,171.867,135.716z
			 M171.867,183.716c-8.837,0-16-7.163-16-16s7.163-16,16-16s16,7.163,16,16S180.704,183.716,171.867,183.716z"/>
	</g>
</g>
<g>
	<g>
		<path d="M275.867,239.716c-17.673,0-32,14.327-32,32c0,17.673,14.327,32,32,32c17.673,0,32-14.327,32-32
			C307.867,254.042,293.54,239.716,275.867,239.716z M275.867,287.716c-8.837,0-16-7.163-16-16s7.163-16,16-16s16,7.163,16,16
			S284.704,287.716,275.867,287.716z"/>
	</g>
</g>
<g>
	<g>
		<path d="M467.475,405.244c-1.071-3.296-4.142-5.528-7.608-5.528h-40v-72c0-0.056,0-0.096,0-0.152
			c-0.022-0.926-0.206-1.841-0.544-2.704c-0.088-0.232-0.208-0.432-0.312-0.648c-0.131-0.322-0.283-0.635-0.456-0.936l-43.2-64.8
			l64.416-35.792c3.862-2.147,5.252-7.018,3.105-10.879c-0.725-1.304-1.8-2.38-3.105-3.105l-64-35.544l42.496-56.64
			c2.651-3.535,1.935-8.549-1.6-11.2c-1.385-1.039-3.069-1.6-4.8-1.6h-72v-72c0-4.418-3.582-8-8-8c-1.731,0-3.415,0.561-4.8,1.6
			l-56.664,42.496l-35.544-64c-2.49-3.862-7.64-4.973-11.501-2.483c-0.995,0.642-1.841,1.488-2.483,2.483l-35.792,64.416l-64.8-43.2
			c-3.684-2.439-8.648-1.429-11.087,2.255c-0.87,1.315-1.333,2.857-1.329,4.433v72h-64c-4.418,0-8,3.582-8,8
			c0,1.731,0.561,3.415,1.6,4.8l42.496,56.664l-64,35.544c-3.862,2.147-5.252,7.018-3.105,10.879c0.725,1.304,1.8,2.38,3.105,3.105
			L80.379,258.5l-43.2,64.8c-2.439,3.684-1.429,8.648,2.255,11.087c1.315,0.87,2.857,1.333,4.433,1.329h72v72c0,4.418,3.582,8,8,8
			c1.731,0,3.415-0.561,4.8-1.6l56.664-42.496l35.544,64c2.147,3.862,7.018,5.252,10.879,3.105c1.304-0.725,2.38-1.8,3.105-3.105
			l35.544-64l37.464,28.096h-24c-4.418-0.001-8.001,3.58-8.002,7.998c0,2.561,1.225,4.968,3.298,6.474l88,64
			c2.805,2.039,6.603,2.039,9.408,0l88-64C467.374,412.15,468.547,408.539,467.475,405.244z M272.667,353.316
			c-1.846-1.397-4.21-1.917-6.472-1.424v0c-2.258,0.483-4.198,1.918-5.32,3.936l-33.008,59.416l-33.008-59.416
			c-1.122-2.018-3.062-3.453-5.32-3.936c-0.55-0.116-1.11-0.175-1.672-0.176c-1.732-0.003-3.417,0.558-4.8,1.6l-51.2,38.4v-64
			c0-4.418-3.582-8-8-8H58.811l39.712-59.56c2.45-3.677,1.456-8.643-2.221-11.094c-0.18-0.12-0.366-0.233-0.555-0.338l-59.4-33.008
			l59.408-33.008c3.861-2.147,5.251-7.018,3.104-10.88c-0.176-0.317-0.374-0.622-0.592-0.912l-38.4-51.2h56c4.418,0,8-3.582,8-8
			V46.668l59.56,39.704c3.675,2.452,8.643,1.46,11.095-2.215c0.12-0.18,0.232-0.364,0.337-0.553l33.008-59.416l33.008,59.416
			c2.147,3.861,7.018,5.251,10.88,3.104c0.317-0.176,0.622-0.374,0.912-0.592l51.2-38.4v64c0,4.418,3.582,8,8,8h64l-38.4,51.2
			c-2.651,3.534-1.935,8.549,1.6,11.2c0.29,0.218,0.595,0.416,0.912,0.592l59.408,33.008l-59.408,33.008
			c-3.863,2.143-5.258,7.013-3.114,10.877c0.105,0.19,0.218,0.375,0.338,0.555l39.72,59.56h-65.056c-4.418,0-8,3.582-8,8v64
			L272.667,353.316z M371.867,461.828l-63.4-46.112h23.4c0.16,0,0.288-0.08,0.44-0.088c0.756-0.042,1.503-0.193,2.216-0.448
			c0.216-0.08,0.432-0.12,0.632-0.208c0.2-0.088,0.192-0.048,0.288-0.096c0.725-0.371,1.389-0.851,1.968-1.424
			c0.128-0.128,0.216-0.28,0.336-0.408c0.501-0.554,0.922-1.176,1.248-1.848c0.112-0.232,0.216-0.456,0.312-0.704
			c0.352-0.884,0.542-1.824,0.56-2.776v-72h64v72c0,4.418,3.582,8,8,8h23.4L371.867,461.828z"/>
	</g>
</g>
<g>
	<g>
		<rect x="105.072" y="211.714" transform="matrix(0.7071 -0.7071 0.7071 0.7071 -89.7927 222.6491)" width="237.585" height="16"/>
	</g>
</g>
<g>
</g>
<g>
</g>
<g>
</g>
<g>
</g>
<g>
</g>
<g>
</g>
<g>
</g>
<g>
</g>
<g>
</g>
<g>
</g>
<g>
</g>
<g>
</g>
<g>
</g>
<g>
</g>
<g>
</g>
</svg>
