<?xml version="1.0" encoding="iso-8859-1"?>
<!-- Generator: Adobe Illustrator 19.0.0, SVG Export Plug-In . SVG Version: 6.00 Build 0)  -->
<svg version="1.1" id="Capa_1" xmlns="http://www.w3.org/2000/svg" xmlns:xlink="http://www.w3.org/1999/xlink" x="0px" y="0px"
	 viewBox="0 0 480 480" style="enable-background:new 0 0 480 480;" xml:space="preserve">
<g>
	<g>
		<path d="M463.328,367.986l-22.072-250.112c-1.032-12.418-11.444-21.952-23.904-21.888H288v-56c0-13.255-10.745-24-24-24H24
			c-13.255,0-24,10.745-24,24v64h16v-64c0-4.418,3.582-8,8-8h240c4.418,0,8,3.582,8,8v248H16v-72H0v200h68.2
			c13.184,37.445,54.228,57.112,91.672,43.928c20.541-7.232,36.695-23.387,43.928-43.928h72.4
			c13.184,37.445,54.228,57.112,91.672,43.928c20.541-7.232,36.695-23.387,43.928-43.928H480v-48H463.328z M437.384,255.986H328
			c-4.418,0-8-3.582-8-8v-96c0-4.418,3.582-8,8-8h99.496L437.384,255.986z M64.472,399.986H16v-16h48.472
			C63.842,389.301,63.842,394.672,64.472,399.986z M136,447.986c-30.928,0-56-25.072-56-56c0-30.928,25.072-56,56-56
			c30.928,0,56,25.072,56,56C191.965,422.9,166.913,447.951,136,447.986z M272.472,399.986h-64.944c0.63-5.315,0.63-10.685,0-16
			h64.944C271.842,389.301,271.842,394.672,272.472,399.986z M344,447.986c-30.928,0-56-25.072-56-56c0-30.928,25.072-56,56-56
			c30.928,0,56,25.072,56,56C399.965,422.9,374.913,447.951,344,447.986z M411.8,367.986
			c-13.184-37.445-54.228-57.112-91.672-43.928c-20.541,7.232-36.695,23.387-43.928,43.928h-72.4
			c-13.184-37.445-54.228-57.112-91.672-43.928c-20.541,7.232-36.695,23.387-43.928,43.928H16v-64h272v-192h129.352
			c4.166-0.039,7.656,3.144,8,7.296l0.8,8.704H328c-13.255,0-24,10.745-24,24v96c0,13.255,10.745,24,24,24h110.792l8.472,96H411.8z
			 M464,399.986h-48.472c0.63-5.315,0.63-10.685,0-16H464V399.986z"/>
	</g>
</g>
<g>
	<g>
		<path d="M344,351.986c-22.091,0-40,17.909-40,40c0,22.091,17.909,40,40,40c22.091,0,40-17.909,40-40
			C383.974,369.906,366.08,352.013,344,351.986z M344,415.986c-13.255,0-24-10.745-24-24s10.745-24,24-24s24,10.745,24,24
			S357.255,415.986,344,415.986z"/>
	</g>
</g>
<g>
	<g>
		<path d="M136,351.986c-22.091,0-40,17.909-40,40c0,22.091,17.909,40,40,40s40-17.909,40-40
			C175.974,369.906,158.08,352.013,136,351.986z M136,415.986c-13.255,0-24-10.745-24-24s10.745-24,24-24s24,10.745,24,24
			S149.255,415.986,136,415.986z"/>
	</g>
</g>
<g>
	<g>
		<rect x="304" y="287.986" width="32" height="16"/>
	</g>
</g>
<g>
	<g>
		<path d="M176,79.986c-44.183,0-80,35.817-80,80s35.817,80,80,80c44.163-0.049,79.952-35.837,80-80
			C256,115.804,220.183,79.986,176,79.986z M176,223.986c-35.33-0.04-63.96-28.67-64-64c0-35.346,28.654-64,64-64
			c35.346,0,64,28.654,64,64C240,195.333,211.346,223.986,176,223.986z"/>
	</g>
</g>
<g>
	<g>
		<polygon points="202.344,122.33 176,148.674 165.656,138.33 154.344,149.642 176,171.298 213.656,133.642 		"/>
	</g>
</g>
<g>
	<g>
		<rect y="151.986" width="80" height="16"/>
	</g>
</g>
<g>
	<g>
		<rect x="16" y="183.986" width="64" height="16"/>
	</g>
</g>
<g>
	<g>
		<rect x="32" y="119.986" width="48" height="16"/>
	</g>
</g>
<g>
	<g>
		<rect y="119.986" width="16" height="16"/>
	</g>
</g>
<g>
</g>
<g>
</g>
<g>
</g>
<g>
</g>
<g>
</g>
<g>
</g>
<g>
</g>
<g>
</g>
<g>
</g>
<g>
</g>
<g>
</g>
<g>
</g>
<g>
</g>
<g>
</g>
<g>
</g>
</svg>
