<?xml version="1.0" encoding="iso-8859-1"?>
<!-- Generator: Adobe Illustrator 19.0.0, SVG Export Plug-In . SVG Version: 6.00 Build 0)  -->
<svg version="1.1" id="Capa_1" xmlns="http://www.w3.org/2000/svg" xmlns:xlink="http://www.w3.org/1999/xlink" x="0px" y="0px"
	 viewBox="0 0 480 480" style="enable-background:new 0 0 480 480;" xml:space="preserve">
<g>
	<g>
		<path d="M328,114.8V24c0-13.255-10.745-24-24-24H96C82.745,0,72,10.745,72,24v288c0,13.255,10.745,24,24,24h137.384
			c2.131,19.252,6.857,38.127,14.048,56.112l2.288,5.72c9.456,23.583,14.303,48.76,14.28,74.168v8h144V238.168
			C408.157,184.82,376.771,136.42,328,114.8z M232,217.944V312c0,2.672,0.088,5.336,0.192,8H96c-4.418,0-8-3.582-8-8V24
			c0-4.418,3.582-8,8-8h208c4.418,0,8,3.582,8,8v288c0,4.418-3.582,8-8,8s-8-3.582-8-8v-94.056c0-17.673-14.327-32-32-32
			C246.327,185.944,232,200.271,232,217.944z M392,464H279.856c-0.901-24.739-6.073-49.136-15.288-72.112l-2.288-5.72
			c-9.456-23.583-14.303-48.76-14.28-74.168v-94.056c0-8.837,7.163-16,16-16c8.837,0,16,7.163,16,16V312c0,13.255,10.745,24,24,24
			s24-10.745,24-24V132.464c39.451,20.463,64.153,61.262,64,105.704V464z"/>
	</g>
</g>
<g>
	<g>
		<path d="M168,32v80h64V32H168z M216,96h-32V48h32V96z"/>
	</g>
</g>
<g>
	<g>
		<rect x="192" y="64" width="16" height="16"/>
	</g>
</g>
<g>
	<g>
		<rect x="136" y="32" width="16" height="120"/>
	</g>
</g>
<g>
	<g>
		<rect x="104" y="32" width="16" height="64"/>
	</g>
</g>
<g>
	<g>
		<rect x="104" y="112" width="16" height="112"/>
	</g>
</g>
<g>
	<g>
		<path d="M128,240c-13.255,0-24,10.745-24,24v16c0,13.255,10.745,24,24,24s24-10.745,24-24v-16C152,250.745,141.255,240,128,240z
			 M136,280c0,4.418-3.582,8-8,8c-4.418,0-8-3.582-8-8v-16c0-4.418,3.582-8,8-8c4.418,0,8,3.582,8,8V280z"/>
	</g>
</g>
<g>
</g>
<g>
</g>
<g>
</g>
<g>
</g>
<g>
</g>
<g>
</g>
<g>
</g>
<g>
</g>
<g>
</g>
<g>
</g>
<g>
</g>
<g>
</g>
<g>
</g>
<g>
</g>
<g>
</g>
</svg>
