<?xml version="1.0" encoding="iso-8859-1"?>
<!-- Generator: Adobe Illustrator 19.0.0, SVG Export Plug-In . SVG Version: 6.00 Build 0)  -->
<svg version="1.1" id="Capa_1" xmlns="http://www.w3.org/2000/svg" xmlns:xlink="http://www.w3.org/1999/xlink" x="0px" y="0px"
	 viewBox="0 0 480 480" style="enable-background:new 0 0 480 480;" xml:space="preserve">
<g>
	<g>
		<path d="M448,384V144h-72v-32h72V0H240v112h72v32h-88V96H96v48H32v240H0v96h480v-96H448z M256,96V16h176v80H256z M360,112v32h-32
			v-32H360z M112,112h96v112h-96V112z M48,160h48v64H80v16h160v-16h-16v-64h208v224H48V160z M464,464H16v-64h448V464z"/>
	</g>
</g>
<g>
	<g>
		<rect x="400" y="256" width="16" height="16"/>
	</g>
</g>
<g>
	<g>
		<rect x="368" y="256" width="16" height="16"/>
	</g>
</g>
<g>
	<g>
		<rect x="336" y="256" width="16" height="16"/>
	</g>
</g>
<g>
	<g>
		<path d="M272,176v64h144v-64H272z M400,224H288v-32h112V224z"/>
	</g>
</g>
<g>
	<g>
		<rect x="304" y="256" width="16" height="16"/>
	</g>
</g>
<g>
	<g>
		<rect x="272.48" y="256" width="16" height="16"/>
	</g>
</g>
<g>
	<g>
		<rect x="399.496" y="288" width="16" height="16"/>
	</g>
</g>
<g>
	<g>
		<rect x="367.496" y="288" width="16" height="16"/>
	</g>
</g>
<g>
	<g>
		<rect x="335.496" y="288" width="16" height="16"/>
	</g>
</g>
<g>
	<g>
		<rect x="303.496" y="288" width="16" height="16"/>
	</g>
</g>
<g>
	<g>
		<rect x="272" y="288" width="16" height="16"/>
	</g>
</g>
<g>
	<g>
		<rect x="400" y="320" width="16" height="16"/>
	</g>
</g>
<g>
	<g>
		<rect x="368" y="320" width="16" height="16"/>
	</g>
</g>
<g>
	<g>
		<rect x="336" y="320" width="16" height="16"/>
	</g>
</g>
<g>
	<g>
		<rect x="304" y="320" width="16" height="16"/>
	</g>
</g>
<g>
	<g>
		<rect x="272.48" y="320" width="16" height="16"/>
	</g>
</g>
<g>
	<g>
		<rect x="399.496" y="352" width="16" height="16"/>
	</g>
</g>
<g>
	<g>
		<rect x="367.496" y="352" width="16" height="16"/>
	</g>
</g>
<g>
	<g>
		<rect x="335.496" y="352" width="16" height="16"/>
	</g>
</g>
<g>
	<g>
		<rect x="303.496" y="352" width="16" height="16"/>
	</g>
</g>
<g>
	<g>
		<rect x="272" y="352" width="16" height="16"/>
	</g>
</g>
<g>
	<g>
		<rect x="112" y="352" width="32" height="16"/>
	</g>
</g>
<g>
	<g>
		<rect x="176" y="352" width="32" height="16"/>
	</g>
</g>
<g>
	<g>
		<rect x="112" y="320" width="32" height="16"/>
	</g>
</g>
<g>
	<g>
		<rect x="176" y="320" width="32" height="16"/>
	</g>
</g>
<g>
	<g>
		<rect x="224" y="352" width="16" height="16"/>
	</g>
</g>
<g>
	<g>
		<rect x="80" y="352" width="16" height="16"/>
	</g>
</g>
<g>
	<g>
		<rect x="80" y="320" width="16" height="16"/>
	</g>
</g>
<g>
	<g>
		<rect x="224" y="320" width="16" height="16"/>
	</g>
</g>
<g>
</g>
<g>
</g>
<g>
</g>
<g>
</g>
<g>
</g>
<g>
</g>
<g>
</g>
<g>
</g>
<g>
</g>
<g>
</g>
<g>
</g>
<g>
</g>
<g>
</g>
<g>
</g>
<g>
</g>
</svg>
