<?xml version="1.0" encoding="iso-8859-1"?>
<!-- Generator: Adobe Illustrator 19.0.0, SVG Export Plug-In . SVG Version: 6.00 Build 0)  -->
<svg version="1.1" id="Capa_1" xmlns="http://www.w3.org/2000/svg" xmlns:xlink="http://www.w3.org/1999/xlink" x="0px" y="0px"
	 viewBox="0 0 480 480" style="enable-background:new 0 0 480 480;" xml:space="preserve">
<g>
	<g>
		<path d="M160,0v146.8c-48.769,21.619-80.154,70.014-80,123.36V480h141.2l20.328-45.72c9.292-20.874,14.201-43.433,14.424-66.28
			H400V0H160z M176,16h22.864C195.946,27.2,187.2,35.946,176,38.864V16z M240,366.048c0.028,21.271-4.434,42.308-13.096,61.736
			L210.8,464H96V270.168c-0.152-44.441,24.55-85.24,64-105.704V344c0,13.255,10.745,24,24,24s24-10.745,24-24v-78.064
			c0-8.837,7.163-16,16-16s16,7.163,16,16V366.048z M384,352h-22.864c2.918-11.2,11.664-19.946,22.864-22.864V352z M384,312.72
			c-20.104,3.429-35.851,19.176-39.28,39.28H256v-86.064c0-17.673-14.327-32-32-32c-17.673,0-32,14.327-32,32V344
			c0,4.418-3.582,8-8,8s-8-3.582-8-8V55.28c20.104-3.428,35.852-19.176,39.28-39.28h129.44c3.429,20.104,19.176,35.852,39.28,39.28
			V312.72z M384,38.864C372.801,35.946,364.054,27.2,361.136,16H384V38.864z"/>
	</g>
</g>
<g>
	<g>
		<path d="M334.864,176c-3.637-14.086-16.317-23.945-30.864-24c-17.673,0-32,14.327-32,32c0,8.837-7.163,16-16,16
			c-8.837,0-16-7.163-16-16s7.163-16,16-16v-16c-14.547,0.055-27.227,9.914-30.864,24H208v16h17.136
			c4.396,17.081,21.807,27.364,38.888,22.968C278.151,211.332,288.018,198.587,288,184c0-8.837,7.163-16,16-16s16,7.163,16,16
			s-7.163,16-16,16v16c14.547-0.055,27.227-9.915,30.864-24H352v-16H334.864z"/>
	</g>
</g>
<g>
</g>
<g>
</g>
<g>
</g>
<g>
</g>
<g>
</g>
<g>
</g>
<g>
</g>
<g>
</g>
<g>
</g>
<g>
</g>
<g>
</g>
<g>
</g>
<g>
</g>
<g>
</g>
<g>
</g>
</svg>
