<?xml version="1.0" encoding="iso-8859-1"?>
<!-- Generator: Adobe Illustrator 19.0.0, SVG Export Plug-In . SVG Version: 6.00 Build 0)  -->
<svg version="1.1" id="Capa_1" xmlns="http://www.w3.org/2000/svg" xmlns:xlink="http://www.w3.org/1999/xlink" x="0px" y="0px"
	 viewBox="0 0 480.006 480.006" style="enable-background:new 0 0 480.006 480.006;" xml:space="preserve">
<g>
	<g>
		<path d="M456.003,144.006h-44.952c-0.793-1.259-1.678-2.457-2.648-3.584L292.571,10.11c-11.033-12.42-30.046-13.544-42.465-2.511
			c-6.427,5.71-10.104,13.897-10.103,22.495C240.01,13.481,226.549,0.007,209.936,0c-8.596-0.004-16.782,3.67-22.494,10.094
			l-115.84,130.32c-0.97,1.13-1.856,2.331-2.648,3.592H24.003c-13.255,0-24,10.745-24,24v32c0,13.255,10.745,24,24,24h8.936
			l29.376,234.976c1.501,12.011,11.711,21.025,23.816,21.024h307.744c12.105,0.001,22.315-9.013,23.816-21.024l29.376-234.976h8.936
			c13.255,0,24-10.745,24-24v-32C480.003,154.751,469.258,144.006,456.003,144.006z M256.003,30.094
			c-0.006-7.776,6.293-14.085,14.069-14.091c4.028-0.003,7.864,1.719,10.539,4.731l115.832,130.32
			c2.294,2.575,3.561,5.904,3.56,9.352v1.512c0.006,7.776-6.293,14.085-14.069,14.091c-4.028,0.003-7.864-1.719-10.539-4.731
			l-23.392-26.312v-0.96h-0.848l-91.6-103.048c-2.291-2.576-3.555-5.905-3.552-9.352V30.094z M232.403,51.598
			c4.898-5.508,7.602-12.622,7.6-19.992c-0.007,7.373,2.698,14.492,7.6,20l82.144,92.4H150.259L232.403,51.598z M80.003,160.406
			c-0.001-3.45,1.263-6.78,3.552-9.36L199.403,20.734c5.168-5.81,14.068-6.33,19.878-1.162c3.004,2.672,4.722,6.501,4.722,10.522
			v1.512c0.001,3.45-1.263,6.78-3.552,9.36l-91.6,103.04h-0.848v0.952l-23.4,26.32c-5.168,5.81-14.068,6.33-19.878,1.162
			c-3.004-2.672-4.722-6.501-4.722-10.522V160.406z M401.803,456.998c-0.5,4.003-3.902,7.007-7.936,7.008H86.131
			c-4.034-0.001-7.436-3.005-7.936-7.008L49.067,224.006h381.872L401.803,456.998z M464.003,200.006c0,4.418-3.582,8-8,8h-432
			c-4.418,0-8-3.582-8-8v-32c0-4.418,3.582-8,8-8h40c0,0.136,0,0.264,0,0.4v1.512c-0.008,16.613,13.454,30.086,30.066,30.094
			c8.596,0.004,16.782-3.67,22.494-10.094l19.44-21.912h208l19.464,21.896c11.053,12.402,30.067,13.496,42.469,2.443
			c6.396-5.701,10.058-13.859,10.067-22.427v-1.512c0-0.136,0-0.264,0-0.4h40c4.418,0,8,3.582,8,8V200.006z"/>
	</g>
</g>
<g>
	<g>
		<path d="M160.003,256.006c-13.255,0-24,10.745-24,24v128c0,13.255,10.745,24,24,24s24-10.745,24-24v-128
			C184.003,266.751,173.258,256.006,160.003,256.006z M168.003,408.006c0,4.418-3.582,8-8,8s-8-3.582-8-8v-128c0-4.418,3.582-8,8-8
			s8,3.582,8,8V408.006z"/>
	</g>
</g>
<g>
	<g>
		<path d="M240.003,256.006c-13.255,0-24,10.745-24,24v128c0,13.255,10.745,24,24,24s24-10.745,24-24v-128
			C264.003,266.751,253.258,256.006,240.003,256.006z M248.003,408.006c0,4.418-3.582,8-8,8s-8-3.582-8-8v-128c0-4.418,3.582-8,8-8
			s8,3.582,8,8V408.006z"/>
	</g>
</g>
<g>
	<g>
		<path d="M320.003,256.006c-13.255,0-24,10.745-24,24v128c0,13.255,10.745,24,24,24s24-10.745,24-24v-128
			C344.003,266.751,333.258,256.006,320.003,256.006z M328.003,408.006c0,4.418-3.582,8-8,8s-8-3.582-8-8v-128c0-4.418,3.582-8,8-8
			s8,3.582,8,8V408.006z"/>
	</g>
</g>
<g>
</g>
<g>
</g>
<g>
</g>
<g>
</g>
<g>
</g>
<g>
</g>
<g>
</g>
<g>
</g>
<g>
</g>
<g>
</g>
<g>
</g>
<g>
</g>
<g>
</g>
<g>
</g>
<g>
</g>
</svg>
