<?xml version="1.0" encoding="iso-8859-1"?>
<!-- Generator: Adobe Illustrator 19.0.0, SVG Export Plug-In . SVG Version: 6.00 Build 0)  -->
<svg version="1.1" id="Capa_1" xmlns="http://www.w3.org/2000/svg" xmlns:xlink="http://www.w3.org/1999/xlink" x="0px" y="0px"
	 viewBox="0 0 480 480" style="enable-background:new 0 0 480 480;" xml:space="preserve">
<g>
	<g>
		<rect x="32" y="80" width="16" height="136"/>
	</g>
</g>
<g>
	<g>
		<polygon points="80,80 64,80 64,216 80,216 96,216 96,80 		"/>
	</g>
</g>
<g>
	<g>
		<rect x="112" y="80" width="16" height="136"/>
	</g>
</g>
<g>
	<g>
		<rect x="144" y="80" width="16" height="136"/>
	</g>
</g>
<g>
	<g>
		<polygon points="192,80 176,80 176,216 192,216 208,216 208,80 		"/>
	</g>
</g>
<g>
	<g>
		<polygon points="240,80 224,80 224,216 240,216 256,216 256,80 		"/>
	</g>
</g>
<g>
	<g>
		<rect x="272" y="80" width="16" height="136"/>
	</g>
</g>
<g>
	<g>
		<polygon points="320,80 304,80 304,216 320,216 336,216 336,80 		"/>
	</g>
</g>
<g>
	<g>
		<rect x="352" y="80" width="16" height="136"/>
	</g>
</g>
<g>
	<g>
		<rect x="384" y="80" width="16" height="136"/>
	</g>
</g>
<g>
	<g>
		<polygon points="432,80 416,80 416,216 432,216 448,216 448,80 		"/>
	</g>
</g>
<g>
	<g>
		<rect y="232" width="480" height="16"/>
	</g>
</g>
<g>
	<g>
		<rect x="31.496" y="264" width="16" height="136"/>
	</g>
</g>
<g>
	<g>
		<polygon points="79.496,264 63.496,264 63.496,400 79.496,400 95.496,400 95.496,264 		"/>
	</g>
</g>
<g>
	<g>
		<rect x="111.496" y="264" width="16" height="136"/>
	</g>
</g>
<g>
	<g>
		<rect x="143.496" y="264" width="16" height="136"/>
	</g>
</g>
<g>
	<g>
		<polygon points="191.496,264 175.496,264 175.496,400 191.496,400 207.496,400 207.496,264 		"/>
	</g>
</g>
<g>
	<g>
		<polygon points="239.496,264 223.496,264 223.496,400 239.496,400 255.496,400 255.496,264 		"/>
	</g>
</g>
<g>
	<g>
		<rect x="271.496" y="264" width="16" height="136"/>
	</g>
</g>
<g>
	<g>
		<polygon points="319.496,264 303.496,264 303.496,400 319.496,400 335.496,400 335.496,264 		"/>
	</g>
</g>
<g>
	<g>
		<rect x="351.496" y="264" width="16" height="136"/>
	</g>
</g>
<g>
	<g>
		<rect x="383.496" y="264" width="16" height="136"/>
	</g>
</g>
<g>
	<g>
		<polygon points="432,264 416,264 416,400 432,400 448,400 448,264 		"/>
	</g>
</g>
<g>
</g>
<g>
</g>
<g>
</g>
<g>
</g>
<g>
</g>
<g>
</g>
<g>
</g>
<g>
</g>
<g>
</g>
<g>
</g>
<g>
</g>
<g>
</g>
<g>
</g>
<g>
</g>
<g>
</g>
</svg>
