<?xml version="1.0" encoding="iso-8859-1"?>
<!-- Generator: Adobe Illustrator 19.0.0, SVG Export Plug-In . SVG Version: 6.00 Build 0)  -->
<svg version="1.1" id="Capa_1" xmlns="http://www.w3.org/2000/svg" xmlns:xlink="http://www.w3.org/1999/xlink" x="0px" y="0px"
	 viewBox="0 0 480 480" style="enable-background:new 0 0 480 480;" xml:space="preserve">
<g>
	<g>
		<path d="M465.549,427.352l-86.344-258.944c-3.263-9.785-12.413-16.391-22.728-16.408h-28.472V88c0-48.601-39.399-88-88-88
			s-88,39.399-88,88v64h-28.472c-10.315,0.017-19.465,6.623-22.728,16.408L14.461,427.352c-6.985,20.958,4.342,43.61,25.3,50.596
			c4.077,1.359,8.347,2.052,12.644,2.052h375.2c22.091-0.002,39.998-17.912,39.996-40.004
			C467.601,435.699,466.908,431.429,465.549,427.352z M168.005,88c0-39.765,32.236-72,72-72c39.765,0,72,32.235,72,72v64h-144V88z
			 M152.005,224v-56h176v72c0,4.418-3.582,8-8,8h-160c-4.418,0-8-3.582-8-8V224z M447.077,454.032
			c-4.481,6.295-11.746,10.014-19.472,9.968h-375.2c-13.255,0.016-24.013-10.715-24.03-23.97c-0.003-2.588,0.412-5.159,1.23-7.614
			l86.336-258.944c1.089-3.268,4.147-5.473,7.592-5.472h12.472v128h-16c-4.418,0-8,3.582-8,8v48c0,2.122,0.844,4.156,2.344,5.656
			l24,24c3.124,3.123,8.188,3.123,11.312,0l24-24c1.5-1.5,2.344-3.534,2.344-5.656v-48c0-4.418-3.582-8-8-8h-16v-33.472
			c2.562,0.948,5.268,1.446,8,1.472h160c13.255,0,24-10.745,24-24v-72h12.472c3.445-0.001,6.503,2.204,7.592,5.472l86.336,258.944
			C452.882,439.733,451.641,447.799,447.077,454.032z M160.005,312v36.688l-16,16l-16-16V312H160.005z"/>
	</g>
</g>
<g>
	<g>
		<rect x="24.005" y="40" width="16" height="16"/>
	</g>
</g>
<g>
	<g>
		<rect x="40.005" y="24" width="16" height="16"/>
	</g>
</g>
<g>
	<g>
		<rect x="56.005" y="40" width="16" height="16"/>
	</g>
</g>
<g>
	<g>
		<rect x="40.005" y="56" width="16" height="16"/>
	</g>
</g>
<g>
	<g>
		<rect x="408.005" y="152" width="16" height="16"/>
	</g>
</g>
<g>
	<g>
		<rect x="424.005" y="136" width="16" height="16"/>
	</g>
</g>
<g>
	<g>
		<rect x="440.005" y="152" width="16" height="16"/>
	</g>
</g>
<g>
	<g>
		<rect x="424.005" y="168" width="16" height="16"/>
	</g>
</g>
<g>
	<g>
		<rect x="376.005" y="24" width="16" height="16"/>
	</g>
</g>
<g>
	<g>
		<rect x="104.005" y="104" width="16" height="16"/>
	</g>
</g>
<g>
</g>
<g>
</g>
<g>
</g>
<g>
</g>
<g>
</g>
<g>
</g>
<g>
</g>
<g>
</g>
<g>
</g>
<g>
</g>
<g>
</g>
<g>
</g>
<g>
</g>
<g>
</g>
<g>
</g>
</svg>
